<?xml version="1.0" encoding="utf-8"?>
<!-- Generator: Adobe Illustrator 19.0.0, SVG Export Plug-In . SVG Version: 6.00 Build 0)  -->
<svg version="1.1" id="Capa_1" xmlns="http://www.w3.org/2000/svg" xmlns:xlink="http://www.w3.org/1999/xlink" x="0px" y="0px"
	 viewBox="-295 207 200 200" style="enable-background:new -295 207 200 200;" xml:space="preserve">
<style type="text/css">
	.st0{fill:#FFD86C;}
	.st1{fill:#D9D9D9;}
	.st2{fill:#FFFFFF;}
</style>
<g>
	<circle class="st0" cx="-199.5" cy="319.2" r="44.4"/>
	<path class="st1" d="M-98.6,303.5l-22.2-16.9c-2-1.5-4.7-1.8-7-0.7c-2.3,1.1-3.7,3.4-3.7,5.9v10.3h-6.6v-10.4c0-3.7-3-6.6-6.6-6.6
		h-13.2v-24.6c0-3.7-3-6.6-6.6-6.6h-20.6v-7h5.6c3.7,0,6.6-3,6.6-6.6c0-3.7-3-6.6-6.6-6.6h-42.9c-3.7,0-6.6,3-6.6,6.6
		c0,3.7,3,6.6,6.6,6.6h5.6v7h-25.6c-3.7,0-6.6,3-6.6,6.6v12.9h-13c-3.7,0-6.6,3-6.6,6.6v15.2h-12v-18.8c0-3.7-3-6.6-6.6-6.6
		c-3.7,0-6.6,3-6.6,6.6v69.4c0,3.7,3,6.6,6.6,6.6c3.7,0,6.6-3,6.6-6.6V327h12v15.6c0,3.7,3,6.6,6.6,6.6h16.7L-222,378
		c1.3,1.6,3.1,2.5,5.1,2.5h72.2c3.7,0,6.6-3,6.6-6.6V365h6.6v8.8c0,2.6,1.5,4.9,3.9,6c0.9,0.4,1.8,0.6,2.8,0.6
		c1.6,0,3.1-0.5,4.3-1.6l22.2-19c1.5-1.3,2.3-3.1,2.3-5v-46C-96,306.7-97,304.7-98.6,303.5z M-199.5,366.8
		c-26.3,0-47.6-21.3-47.6-47.6s21.3-47.6,47.6-47.6s47.6,21.3,47.6,47.6S-173.2,366.8-199.5,366.8z"/>
</g>
<g id="XMLID_7333_">
	<g id="XMLID_7334_">
		<path id="XMLID_7339_" class="st2" d="M-175.8,295.4c-13.1-13.1-34.4-13.1-47.5,0c-13.1,13.1-13.1,34.4,0,47.5
			c13.1,13.1,34.4,13.1,47.5,0C-162.7,329.8-162.7,308.5-175.8,295.4z M-217.2,336.9c-9.8-9.8-9.8-25.6,0-35.4
			c9.8-9.8,25.6-9.8,35.4,0c9.8,9.8,9.8,25.6,0,35.4C-191.6,346.6-207.5,346.6-217.2,336.9z"/>
		
			<rect id="XMLID_7335_" x="-205.8" y="289.1" transform="matrix(-0.7071 -0.7071 0.7071 -0.7071 -566.4196 403.6435)" class="st2" width="12.4" height="60.2"/>
	</g>
</g>
</svg>
