<?xml version="1.0" encoding="utf-8"?>
<!-- Generator: Adobe Illustrator 19.0.0, SVG Export Plug-In . SVG Version: 6.00 Build 0)  -->
<svg version="1.1" id="Capa_1" xmlns="http://www.w3.org/2000/svg" xmlns:xlink="http://www.w3.org/1999/xlink" x="0px" y="0px"
	 viewBox="-295 207 200 200" style="enable-background:new -295 207 200 200;" xml:space="preserve">
<style type="text/css">
	.st0{fill:#E55C5C;}
	.st1{fill:#D9D9D9;}
	.st2{fill:#FFFFFF;}
</style>
<g>
	<circle class="st0" cx="-199.5" cy="319.2" r="44.4"/>
	<path class="st1" d="M-98.6,303.5l-22.2-16.9c-2-1.5-4.7-1.8-7-0.7c-2.3,1.1-3.7,3.4-3.7,5.9v10.3h-6.6v-10.4c0-3.7-3-6.6-6.6-6.6
		h-13.2v-24.6c0-3.7-3-6.6-6.6-6.6h-20.6v-7h5.6c3.7,0,6.6-3,6.6-6.6c0-3.7-3-6.6-6.6-6.6h-42.9c-3.7,0-6.6,3-6.6,6.6
		c0,3.7,3,6.6,6.6,6.6h5.6v7h-25.6c-3.7,0-6.6,3-6.6,6.6v12.9h-13c-3.7,0-6.6,3-6.6,6.6v15.2h-12v-18.8c0-3.7-3-6.6-6.6-6.6
		c-3.7,0-6.6,3-6.6,6.6v69.4c0,3.7,3,6.6,6.6,6.6c3.7,0,6.6-3,6.6-6.6V327h12v15.6c0,3.7,3,6.6,6.6,6.6h16.7L-222,378
		c1.3,1.6,3.1,2.5,5.1,2.5h72.2c3.7,0,6.6-3,6.6-6.6V365h6.6v8.8c0,2.6,1.5,4.9,3.9,6c0.9,0.4,1.8,0.6,2.8,0.6
		c1.6,0,3.1-0.5,4.3-1.6l22.2-19c1.5-1.3,2.3-3.1,2.3-5v-46C-96,306.7-97,304.7-98.6,303.5z M-199.5,366.8
		c-26.3,0-47.6-21.3-47.6-47.6s21.3-47.6,47.6-47.6s47.6,21.3,47.6,47.6S-173.2,366.8-199.5,366.8z"/>
</g>
<path id="XMLID_7245_" class="st2" d="M-181.9,293.1l-17.7,17.7l-17.7-17.7c-2.3-2.3-6.1-2.3-8.4,0c-2.3,2.3-2.3,6.1,0,8.4
	l17.7,17.7l-17.7,17.7c-2.3,2.3-2.3,6.1,0,8.4c2.3,2.3,6.1,2.3,8.4,0l17.7-17.7l17.7,17.7c2.3,2.3,6.1,2.3,8.4,0
	c2.3-2.3,2.3-6.1,0-8.4l-17.7-17.7l17.7-17.7c2.3-2.3,2.3-6.1,0-8.4C-175.8,290.8-179.6,290.8-181.9,293.1z"/>
</svg>
