<?xml version="1.0" encoding="utf-8"?>
<!-- Generator: Adobe Illustrator 19.0.0, SVG Export Plug-In . SVG Version: 6.00 Build 0)  -->
<svg version="1.1" id="Capa_1" xmlns="http://www.w3.org/2000/svg" xmlns:xlink="http://www.w3.org/1999/xlink" x="0px" y="0px"
	 viewBox="-295 207 200 200" style="enable-background:new -295 207 200 200;" xml:space="preserve">
<style type="text/css">
	.st0{fill:#D9D9D9;}
	.st1{fill:#E55C5C;}
</style>
<g id="XMLID_12857_">
	<rect id="XMLID_12871_" x="-269.2" y="355.2" class="st0" width="152" height="10"/>
	<rect id="XMLID_12870_" x="-201.8" y="273.8" class="st0" width="10" height="91.4"/>
	<path id="XMLID_12867_" class="st1" d="M-169.4,228.3h-51.3c-7.3,0-13.2,6-13.2,13.3v51.4c0,7.3,6,13.3,13.2,13.3h51.4
		c7.3,0,13.2-6,13.2-13.3v-51.6C-156,234.2-162,228.3-169.4,228.3L-169.4,228.3z M-169.4,228.3"/>
	<path id="XMLID_12864_" class="st0" d="M-103.9,334.9h-33.5c-4.8,0-8.7,3.8-8.7,8.7V377c0,4.8,3.8,8.7,8.7,8.7h33.5
		c4.8,0,8.7-3.8,8.7-8.7v-33.5C-95.3,338.7-99.3,334.9-103.9,334.9L-103.9,334.9z M-103.9,334.9"/>
	<path id="XMLID_12861_" class="st0" d="M-178.2,334.9h-33.6c-4.8,0-8.7,3.8-8.7,8.7V377c0,4.8,3.8,8.7,8.7,8.7h33.5
		c4.8,0,8.7-3.8,8.7-8.7v-33.5C-169.7,338.7-173.5,334.9-178.2,334.9L-178.2,334.9z M-178.2,334.9"/>
	<path id="XMLID_12858_" class="st0" d="M-252.6,334.9h-33.5c-4.8,0-8.7,3.8-8.7,8.7V377c0,4.8,3.8,8.7,8.7,8.7h33.5
		c4.8,0,8.7-3.8,8.7-8.7v-33.5C-243.9,338.7-247.8,334.9-252.6,334.9L-252.6,334.9z M-252.6,334.9"/>
</g>
</svg>
