<?xml version="1.0" encoding="utf-8"?>
<!-- Generator: Adobe Illustrator 19.0.0, SVG Export Plug-In . SVG Version: 6.00 Build 0)  -->
<svg version="1.1" id="Capa_1" xmlns="http://www.w3.org/2000/svg" xmlns:xlink="http://www.w3.org/1999/xlink" x="0px" y="0px"
	 viewBox="-205 297 200 200" style="enable-background:new -205 297 200 200;" xml:space="preserve">
<style type="text/css">
	.st0{fill:#D9D9D9;}
	.st1{fill:#B5BE0D;}
</style>
<g id="XMLID_17826_">
	<rect id="XMLID_17840_" x="-179.3" y="445.2" class="st0" width="152.1" height="10"/>
	<rect id="XMLID_17839_" x="-111.8" y="363.8" class="st0" width="10" height="91.4"/>
	<path id="XMLID_17836_" class="st1" d="M-79.3,318.3h-51.3c-7.3,0-13.2,6-13.2,13.3v51.5c0,7.3,6,13.3,13.2,13.3h51.5
		c7.3,0,13.2-6,13.2-13.3v-51.6C-66,324.1-72,318.3-79.3,318.3L-79.3,318.3z M-79.3,318.3"/>
	<path id="XMLID_17833_" class="st0" d="M-13.9,424.9h-33.5c-4.8,0-8.7,3.8-8.7,8.7V467c0,4.8,3.8,8.7,8.7,8.7h33.5
		c4.8,0,8.7-3.8,8.7-8.7v-33.5C-5.2,428.7-9.2,424.9-13.9,424.9L-13.9,424.9z M-13.9,424.9"/>
	<path id="XMLID_17830_" class="st0" d="M-88.2,424.9h-33.6c-4.8,0-8.7,3.8-8.7,8.7V467c0,4.8,3.8,8.7,8.7,8.7h33.5
		c4.8,0,8.7-3.8,8.7-8.7v-33.5C-79.7,428.7-83.5,424.9-88.2,424.9L-88.2,424.9z M-88.2,424.9"/>
	<path id="XMLID_17827_" class="st0" d="M-162.6,424.9h-33.5c-4.8,0-8.7,3.8-8.7,8.7V467c0,4.8,3.8,8.7,8.7,8.7h33.5
		c4.8,0,8.7-3.8,8.7-8.7v-33.5C-154,428.7-157.8,424.9-162.6,424.9L-162.6,424.9z M-162.6,424.9"/>
</g>
</svg>
