<?xml version="1.0" encoding="utf-8"?>
<!-- Generator: Adobe Illustrator 19.0.0, SVG Export Plug-In . SVG Version: 6.00 Build 0)  -->
<svg version="1.1" id="Capa_1" xmlns="http://www.w3.org/2000/svg" xmlns:xlink="http://www.w3.org/1999/xlink" x="0px" y="0px"
	 viewBox="-295 207 200 200" style="enable-background:new -295 207 200 200;" xml:space="preserve">
<style type="text/css">
	.st0{fill:#D9D9D9;}
	.st1{fill:#E20613;}
	.st2{fill:#E55C5C;}
</style>
<g id="XMLID_6640_">
	<rect id="XMLID_6655_" x="-68.2" y="131.6" class="st0" width="85.3" height="5.6"/>
	<rect id="XMLID_6654_" x="-30.4" y="85.9" class="st0" width="5.6" height="51.3"/>
	<path id="XMLID_6651_" class="st1" d="M-12.1,60.4h-28.8c-4.1,0-7.4,3.4-7.4,7.5v28.9c0,4.1,3.4,7.5,7.4,7.5H-12
		c4.1,0,7.4-3.4,7.4-7.5v-29C-4.6,63.7-8,60.4-12.1,60.4L-12.1,60.4z M-12.1,60.4"/>
	<path id="XMLID_6648_" class="st0" d="M24.6,120.2H5.8c-2.7,0-4.9,2.2-4.9,4.9v18.8c0,2.7,2.1,4.9,4.9,4.9h18.8
		c2.7,0,4.9-2.1,4.9-4.9v-18.8C29.5,122.4,27.2,120.2,24.6,120.2L24.6,120.2z M24.6,120.2"/>
	<path id="XMLID_6645_" class="st0" d="M-17.1,120.2H-36c-2.7,0-4.9,2.2-4.9,4.9v18.8c0,2.7,2.2,4.9,4.9,4.9h18.8
		c2.7,0,4.9-2.1,4.9-4.9v-18.8C-12.3,122.4-14.5,120.2-17.1,120.2L-17.1,120.2z M-17.1,120.2"/>
	<path id="XMLID_6641_" class="st0" d="M-58.9,120.2h-18.8c-2.7,0-4.9,2.2-4.9,4.9v18.8c0,2.7,2.2,4.9,4.9,4.9h18.8
		c2.7,0,4.9-2.1,4.9-4.9v-18.8C-54,122.4-56.2,120.2-58.9,120.2L-58.9,120.2z M-58.9,120.2"/>
</g>
<g>
	<path class="st0" d="M-106.9,295.1c0-48.6-39.4-88.1-88.1-88.1s-88.1,39.4-88.1,88.1c0,44.1,32.4,80.6,74.7,87.1L-195,406
		l13.3-23.9C-139.4,375.7-106.9,339.2-106.9,295.1z M-195,354.6c-32.9,0-59.6-26.7-59.6-59.6s26.7-59.6,59.6-59.6
		s59.6,26.7,59.6,59.6S-162.1,354.6-195,354.6z"/>
	<circle class="st2" cx="-195" cy="295.1" r="39"/>
</g>
</svg>
