<?xml version="1.0" encoding="utf-8"?>
<!-- Generator: Adobe Illustrator 19.0.0, SVG Export Plug-In . SVG Version: 6.00 Build 0)  -->
<svg version="1.1" id="Capa_1" xmlns="http://www.w3.org/2000/svg" xmlns:xlink="http://www.w3.org/1999/xlink" x="0px" y="0px"
	 viewBox="-205 297 200 200" style="enable-background:new -205 297 200 200;" xml:space="preserve">
<style type="text/css">
	.st0{fill:#E20613;}
	.st1{fill:#D9D9D9;}
	.st2{fill:#009540;}
</style>
<g>
	<circle id="XMLID_2903_" class="st0" cx="-105" cy="378.7" r="38.5"/>
	<path id="XMLID_7784_" class="st1" d="M-47,322.9c-15.5-15.5-36.1-24-58-24c-21.9,0-42.5,8.5-58,24c-32,32-32,84,0,116l54.9,54.9
		c0.8,0.8,1.9,1.3,3.1,1.3c1.2,0,2.3-0.5,3.1-1.3l54.9-54.9c15.5-15.5,24-36.1,24-58C-23,359-31.5,338.4-47,322.9z M-105.1,429.9
		c-28.3,0-51.2-23-51.2-51.3c0-28.3,23-51.3,51.2-51.3c28.3,0,51.3,23,51.3,51.3C-53.9,406.9-76.9,429.9-105.1,429.9z"/>
	<path id="XMLID_7779_" class="st2" d="M-105.1,428.7"/>
	<path id="XMLID_7776_" d="M-53.3,430.5"/>
</g>
</svg>
