<?xml version="1.0" encoding="utf-8"?>
<!-- Generator: Adobe Illustrator 19.0.0, SVG Export Plug-In . SVG Version: 6.00 Build 0)  -->
<svg version="1.1" id="Capa_1" xmlns="http://www.w3.org/2000/svg" xmlns:xlink="http://www.w3.org/1999/xlink" x="0px" y="0px"
	 viewBox="-295 207 200 200" style="enable-background:new -295 207 200 200;" xml:space="preserve">
<style type="text/css">
	.st0{fill:#FFFFFF;}
</style>
<g id="XMLID_7254_">
	<path id="XMLID_7256_" class="st0" d="M-95.9,282.6v66.2c0,7.4-6,13.3-13.3,13.3H-122v21.4l-20.6-21.4h-82.8
		c-7.4,0-13.3-6-13.3-13.3v-66.2c0-7.4,6-13.3,13.3-13.3h116.2C-101.8,269.2-95.9,275.2-95.9,282.6L-95.9,282.6z M-95.9,282.6"/>
	<path id="XMLID_7255_" class="st0" d="M-164.6,230.5h-116.2c-7.4,0-13.3,6-13.3,13.3V310c0,7.4,6,13.3,13.3,13.3h12.8v21.4
		l19.5-20.2v-51.8c0-7.4,6-13.3,13.3-13.3h83.9v-15.6C-151.3,236.5-157.3,230.5-164.6,230.5z"/>
</g>
</svg>
