<?xml version="1.0" encoding="utf-8"?>
<!-- Generator: Adobe Illustrator 19.0.0, SVG Export Plug-In . SVG Version: 6.00 Build 0)  -->
<svg version="1.1" id="Capa_1" xmlns="http://www.w3.org/2000/svg" xmlns:xlink="http://www.w3.org/1999/xlink" x="0px" y="0px"
	 viewBox="0 0 200 200" style="enable-background:new 0 0 200 200;" xml:space="preserve">
<style type="text/css">
	.st0{fill:#A51916;}
	.st1{fill:#E30613;}
	.st2{fill:#F9D0D5;}
</style>
<g id="XMLID_7204_">
	<circle id="XMLID_7217_" class="st0" cx="100" cy="100" r="99.3"/>
	<circle id="XMLID_7216_" class="st1" cx="100" cy="100" r="80.7"/>
	<g id="XMLID_7205_">
		<g id="XMLID_7207_">
			<path id="XMLID_7208_" class="st2" d="M59.9,95c-1.6,1.3-5.4,5.2-5.4,14.4v9.2c0,3,2.4,5.4,5.4,5.4h1.5
				c0.5,6.1,5.7,10.9,11.9,10.9c6.2,0,11.4-4.8,11.9-10.9h8.6c0.5,6.1,5.7,10.9,11.9,10.9c5.4,0,9.9-3.5,11.4-8.4
				c1.5,4.9,6.1,8.4,11.4,8.4c6.2,0,11.4-4.8,11.9-10.9h1.9c1.6,0,3-1.3,3-2.8V68.7c0-2-1.6-3.6-3.6-3.6H87.8c-2,0-3.6,1.6-3.6,3.6
				v10h-9.6c-2.8,0-6.2,2-7.5,4.6C67.1,83.4,62.4,93.2,59.9,95L59.9,95z M128.7,127.3c-2.4,0-4.4-2-4.4-4.4c0-2.4,2-4.4,4.4-4.4
				c2.4,0,4.4,2,4.4,4.4C133.1,125.3,131.1,127.3,128.7,127.3L128.7,127.3z M105.8,127.3c-2.4,0-4.4-2-4.4-4.4c0-2.4,2-4.4,4.4-4.4
				c2.4,0,4.4,2,4.4,4.4C110.2,125.3,108.2,127.3,105.8,127.3L105.8,127.3z M98.6,76.6h32.6v25.9H98.6V76.6z M73.3,127.3
				c-2.4,0-4.4-2-4.4-4.4c0-2.4,2-4.4,4.4-4.4c2.4,0,4.4,2,4.4,4.4C77.8,125.3,75.8,127.3,73.3,127.3L73.3,127.3z M64.8,99.7
				c-0.4-0.7,0.9-3.3,1.8-5c0.1-0.2,0.2-0.4,0.3-0.7l3.6-7.3c1-1.9,3.6-3.5,5.8-3.5h7.9v16.7l-18.7,0C65.2,99.9,64.9,99.8,64.8,99.7
				L64.8,99.7z M64.8,99.7"/>
		</g>
		<rect id="XMLID_7206_" x="96" y="72.8" class="st2" width="38.9" height="34.4"/>
	</g>
</g>
</svg>
