<?xml version="1.0" encoding="utf-8"?>
<!-- Generator: Adobe Illustrator 19.0.0, SVG Export Plug-In . SVG Version: 6.00 Build 0)  -->
<svg version="1.1" id="Capa_1" xmlns="http://www.w3.org/2000/svg" xmlns:xlink="http://www.w3.org/1999/xlink" x="0px" y="0px"
	 viewBox="0 0 200 200" style="enable-background:new 0 0 200 200;" xml:space="preserve">
<style type="text/css">
	.st0{fill:#878787;}
	.st1{fill:#DADADA;}
</style>
<g id="XMLID_1_">
	<g id="XMLID_7123_">
		<path id="XMLID_7125_" class="st0" d="M168.4,69.2c0,37.8-68.4,130.1-68.4,130.1S31.6,107,31.6,69.2S62.2,0.7,100,0.7
			S168.4,31.4,168.4,69.2z"/>
		<circle id="XMLID_7124_" class="st1" cx="100" cy="69.2" r="50.4"/>
	</g>
	<g id="XMLID_7118_">
		<path id="XMLID_7122_" class="st0" d="M129,100l3-3.2c0.1-0.1,0.1-0.2,0-0.2l-22.8-21.3c-0.1-0.1-0.2-0.1-0.2,0l-3,3.2
			c-0.1,0.1-0.1,0.2,0,0.2l22.8,21.3C128.8,100,128.9,100,129,100z"/>
		<path id="XMLID_7119_" class="st0" d="M75.1,46.7c-8.8,9.4-8.3,24.2,1.1,33s24.2,8.3,33-1.1s8.3-24.2-1.1-33S84,37.2,75.1,46.7z
			 M106.3,75.8c-7.3,7.8-19.5,8.2-27.2,0.9s-8.2-19.5-0.9-27.2c7.3-7.8,19.5-8.2,27.2-0.9S113.6,68,106.3,75.8z"/>
	</g>
</g>
</svg>
