<?xml version="1.0" encoding="utf-8"?>
<!-- Generator: Adobe Illustrator 19.0.0, SVG Export Plug-In . SVG Version: 6.00 Build 0)  -->
<svg version="1.1" id="Capa_1" xmlns="http://www.w3.org/2000/svg" xmlns:xlink="http://www.w3.org/1999/xlink" x="0px" y="0px"
	 viewBox="0 0 200 200" style="enable-background:new 0 0 200 200;" xml:space="preserve">
<style type="text/css">
	.st0{fill:#878787;}
	.st1{fill:#DADADA;}
</style>
<g id="XMLID_6976_">
	<path id="XMLID_7008_" class="st0" d="M165.1,14.4v13.7h-24V14.4H58.9v13.7h-24V14.4H7.5v37.7h184.9V14.4H165.1z M165.1,14.4"/>
	<path id="XMLID_7003_" class="st1" d="M34.9,52.1H7.5v147.3h184.9V52.1H34.9z M34.9,52.1"/>
	<path id="XMLID_6981_" class="st0" d="M134.3,76H34.9v99.3h130.2V76H134.3z M103.4,82.9h24v24h-24V82.9z M127.4,137.7h-24v-24h24
		V137.7z M72.6,113.7h24v24h-24V113.7z M72.6,82.9h24v24h-24V82.9z M41.8,82.9h24v24h-24V82.9z M41.8,113.7h24v24h-24V113.7z
		 M65.8,168.5h-24v-24h24V168.5z M96.6,168.5h-24v-24h24V168.5z M127.4,168.5h-24v-24h24V168.5z M158.2,168.5h-24v-24h24V168.5z
		 M158.2,137.7h-24v-24h24V137.7z M134.3,106.9v-24h24v24H134.3z M134.3,106.9"/>
	<rect id="XMLID_6980_" x="34.9" y="0.7" class="st1" width="24" height="27.4"/>
	<rect id="XMLID_6979_" x="141.1" y="0.7" class="st1" width="24" height="27.4"/>
	<rect id="XMLID_6978_" x="103.4" y="113.7" class="st0" width="24" height="24"/>
</g>
</svg>
