<?xml version="1.0" encoding="utf-8"?>
<!-- Generator: Adobe Illustrator 19.0.0, SVG Export Plug-In . SVG Version: 6.00 Build 0)  -->
<svg version="1.1" id="Capa_1" xmlns="http://www.w3.org/2000/svg" xmlns:xlink="http://www.w3.org/1999/xlink" x="0px" y="0px"
	 viewBox="0 0 200 200" style="enable-background:new 0 0 200 200;" xml:space="preserve">
<style type="text/css">
	.st0{fill:#C6C6C6;}
</style>
<g id="XMLID_3185_">
	<path id="XMLID_3187_" class="st0" d="M189.4,195l9.4-10.1c0.2-0.2,0.2-0.5,0-0.7l-71.4-66.6c-0.2-0.2-0.5-0.2-0.7,0l-9.4,10.1
		c-0.2,0.2-0.2,0.5,0,0.7l71.4,66.6C188.9,195.2,189.2,195.2,189.4,195z"/>
	<path id="XMLID_3461_" class="st0" d="M20.7,28.1c-27.6,29.6-26,75.9,3.6,103.5s75.9,26,103.5-3.6s26-75.9-3.6-103.5
		S48.3-1.5,20.7,28.1z M118.4,119.3c-22.8,24.4-61,25.7-85.3,2.9s-25.7-61-2.9-85.3s61-25.7,85.3-2.9S141.1,94.9,118.4,119.3z"/>
</g>
</svg>
