<?xml version="1.0" encoding="utf-8"?>
<!-- Generator: Adobe Illustrator 19.0.0, SVG Export Plug-In . SVG Version: 6.00 Build 0)  -->
<svg version="1.1" id="Capa_1" xmlns="http://www.w3.org/2000/svg" xmlns:xlink="http://www.w3.org/1999/xlink" x="0px" y="0px"
	 viewBox="0 0 200 200" style="enable-background:new 0 0 200 200;" xml:space="preserve">
<style type="text/css">
	.st0{fill:#DADADA;}
	.st1{fill:#878787;}
</style>
<g id="XMLID_7129_">
	<g id="XMLID_7170_">
		<path id="XMLID_7171_" class="st0" d="M199.3,100c0,54.8-44.4,99.3-99.3,99.3c-54.8,0-99.3-44.4-99.3-99.3
			C0.7,45.2,45.2,0.7,100,0.7C154.8,0.7,199.3,45.2,199.3,100L199.3,100z M199.3,100"/>
	</g>
	<g id="XMLID_7165_">
		<path id="XMLID_7166_" class="st1" d="M100,14.4c47.2,0,85.6,38.4,85.6,85.6c0,47.2-38.4,85.6-85.6,85.6
			c-47.2,0-85.6-38.4-85.6-85.6C14.4,52.8,52.8,14.4,100,14.4 M100,0.7C45.2,0.7,0.7,45.2,0.7,100c0,54.8,44.5,99.3,99.3,99.3
			c54.8,0,99.3-44.4,99.3-99.3C199.3,45.2,154.8,0.7,100,0.7L100,0.7z M100,0.7"/>
	</g>
	<g id="XMLID_7161_">
		<path id="XMLID_7162_" class="st1" d="M100,20.8c-1.9,0-3.4,1.5-3.4,3.4v3.4c0,1.9,1.5,3.4,3.4,3.4c1.9,0,3.4-1.5,3.4-3.4v-3.4
			C103.4,22.4,101.9,20.8,100,20.8L100,20.8z M100,20.8"/>
	</g>
	<g id="XMLID_7157_">
		<path id="XMLID_7158_" class="st1" d="M100,168.1c-1.9,0-3.4,1.5-3.4,3.4v3.4c0,1.9,1.5,3.4,3.4,3.4c1.9,0,3.4-1.5,3.4-3.4v-3.4
			C103.4,169.6,101.9,168.1,100,168.1L100,168.1z M100,168.1"/>
	</g>
	<g id="XMLID_7153_">
		<path id="XMLID_7154_" class="st1" d="M175.3,96.2h-3.4c-1.9,0-3.4,1.5-3.4,3.4c0,1.9,1.5,3.4,3.4,3.4h3.4c1.9,0,3.4-1.5,3.4-3.4
			C178.8,97.7,177.2,96.2,175.3,96.2L175.3,96.2z M175.3,96.2"/>
	</g>
	<g id="XMLID_7149_">
		<path id="XMLID_7150_" class="st1" d="M28.1,96.2h-3.4c-1.9,0-3.4,1.5-3.4,3.4c0,1.9,1.5,3.4,3.4,3.4h3.4c1.9,0,3.4-1.5,3.4-3.4
			C31.5,97.7,30,96.2,28.1,96.2L28.1,96.2z M28.1,96.2"/>
	</g>
	<g id="XMLID_7145_">
		<path id="XMLID_7146_" class="st1" d="M150.8,43.9l-2.4,2.4c-1.3,1.3-1.3,3.5,0,4.8c0.7,0.7,1.6,1,2.4,1c0.9,0,1.8-0.3,2.4-1
			l2.4-2.4c1.3-1.3,1.3-3.5,0-4.8C154.3,42.6,152.2,42.6,150.8,43.9L150.8,43.9z M150.8,43.9"/>
	</g>
	<g id="XMLID_7141_">
		<path id="XMLID_7142_" class="st1" d="M46.7,148l-2.4,2.4c-1.4,1.4-1.4,3.5,0,4.8c0.7,0.7,1.5,1,2.4,1c0.9,0,1.8-0.3,2.4-1
			l2.4-2.4c1.3-1.3,1.3-3.5,0-4.8C50.2,146.7,48.1,146.7,46.7,148L46.7,148z M46.7,148"/>
	</g>
	<g id="XMLID_7137_">
		<path id="XMLID_7138_" class="st1" d="M153.3,148c-1.3-1.3-3.5-1.3-4.8,0c-1.3,1.3-1.3,3.5,0,4.8l2.4,2.4c0.7,0.7,1.6,1,2.4,1
			c0.9,0,1.8-0.3,2.4-1c1.3-1.3,1.3-3.5,0-4.8L153.3,148z M153.3,148"/>
	</g>
	<g id="XMLID_7133_">
		<path id="XMLID_7134_" class="st1" d="M49.2,43.9c-1.3-1.4-3.5-1.4-4.8,0c-1.4,1.3-1.4,3.5,0,4.8l2.4,2.4c0.7,0.7,1.6,1,2.4,1
			c0.9,0,1.8-0.3,2.4-1c1.3-1.3,1.3-3.5,0-4.8L49.2,43.9z M49.2,43.9"/>
	</g>
	<path id="XMLID_7130_" class="st1" d="M100,113.3c-6.4,0-11.7-4.4-13.3-10.3H62.3c-1.9,0-3.4-1.5-3.4-3.4c0-1.9,1.5-3.4,3.4-3.4
		h24.4c1.2-4.8,5-8.6,9.8-9.8V51.7c0-1.9,1.5-3.4,3.4-3.4c1.9,0,3.4,1.5,3.4,3.4v34.7c5.9,1.5,10.3,6.9,10.3,13.3
		C113.7,107.1,107.6,113.3,100,113.3z M100,92.7c-3.8,0-6.8,3.1-6.8,6.8c0,3.8,3.1,6.9,6.8,6.9c3.8,0,6.9-3.1,6.9-6.9
		C106.9,95.8,103.8,92.7,100,92.7z"/>
</g>
</svg>
