<?xml version="1.0" encoding="utf-8"?>
<!-- Generator: Adobe Illustrator 19.0.0, SVG Export Plug-In . SVG Version: 6.00 Build 0)  -->
<svg version="1.1" id="Capa_1" xmlns="http://www.w3.org/2000/svg" xmlns:xlink="http://www.w3.org/1999/xlink" x="0px" y="0px"
	 viewBox="0 0 200 200" style="enable-background:new 0 0 200 200;" xml:space="preserve">
<style type="text/css">
	.st0{fill:#DADADA;}
	.st1{fill:#878787;}
</style>
<g id="XMLID_3625_">
	<g id="XMLID_3626_">
		<path id="XMLID_6956_" class="st0" d="M100,53.3l-70.2,57.8c0,0.1,0,0.2-0.1,0.4c0,0.2-0.1,0.3-0.1,0.4v58.6
			c0,2.1,0.8,3.9,2.3,5.5c1.5,1.5,3.4,2.3,5.5,2.3h46.9v-46.9h31.2v46.9h46.8c2.1,0,3.9-0.8,5.5-2.3c1.5-1.5,2.3-3.4,2.3-5.5v-58.6
			c0-0.3,0-0.6-0.1-0.7L100,53.3z M100,53.3"/>
		<path id="XMLID_3627_" class="st1" d="M197,98l-26.7-22.2V26c0-1.1-0.4-2.1-1.1-2.8c-0.7-0.7-1.7-1.1-2.8-1.1h-23.4
			c-1.1,0-2.1,0.4-2.8,1.1c-0.7,0.7-1.1,1.7-1.1,2.8v23.8l-29.8-24.9c-2.6-2.1-5.7-3.2-9.3-3.2c-3.6,0-6.7,1.1-9.3,3.2L3,98
			c-0.8,0.7-1.3,1.5-1.3,2.6c-0.1,1.1,0.2,2.1,0.9,2.9l7.6,9c0.7,0.7,1.5,1.2,2.6,1.3c1,0.1,2-0.2,2.9-0.9L100,42.6l84.4,70.4
			c0.6,0.6,1.5,0.9,2.6,0.9h0.4c1.1-0.2,1.9-0.6,2.6-1.3l7.6-9c0.6-0.8,0.9-1.8,0.8-2.9C198.3,99.5,197.8,98.6,197,98L197,98z
			 M197,98"/>
	</g>
</g>
</svg>
