<?xml version="1.0" encoding="utf-8"?>
<!-- Generator: Adobe Illustrator 19.0.0, SVG Export Plug-In . SVG Version: 6.00 Build 0)  -->
<svg version="1.1" id="Capa_1" xmlns="http://www.w3.org/2000/svg" xmlns:xlink="http://www.w3.org/1999/xlink" x="0px" y="0px"
	 viewBox="0 0 200 200" style="enable-background:new 0 0 200 200;" xml:space="preserve">
<style type="text/css">
	.st0{fill:#1A90AF;}
	.st1{fill:#B6DFE5;}
</style>
<g id="XMLID_3414_">
	<g id="XMLID_3440_">
		<path id="XMLID_3707_" class="st0" d="M109.1,125.2c-1-0.4-2.2-0.1-3,0.7l-36.8,36.9c-4.1,4.1-9.5,6.3-15.3,6.3
			c-5.8,0-11.2-2.2-15.3-6.3c-8.4-8.5-8.4-22.2,0-30.7l36.8-36.8c0.8-0.8,1-2,0.7-3c-0.4-1-1.3-1.8-2.4-1.9L48,87.8
			c-0.9-0.1-1.7,0.2-2.3,0.8l-25.3,25.3c-8.9,8.9-13.9,20.8-13.9,33.5c0,12.7,4.9,24.6,13.9,33.5c8.9,8.9,20.8,13.9,33.5,13.9
			c12.7,0,24.6-4.9,33.5-13.9l25.3-25.3c0.6-0.6,0.9-1.5,0.8-2.3l-2.6-25.7C110.8,126.5,110.1,125.6,109.1,125.2L109.1,125.2z
			 M109.1,125.2"/>
		<path id="XMLID_3539_" class="st0" d="M179.6,21.6c-8.9-8.9-20.8-13.9-33.5-13.9c-12.7,0-24.6,4.9-33.5,13.9L87.3,46.9
			c-0.6,0.6-0.9,1.5-0.8,2.3L89,75c0.1,1.1,0.8,2,1.9,2.4c1,0.4,2.2,0.1,3-0.7l36.8-36.9c4.1-4.1,9.5-6.3,15.3-6.3
			c5.8,0,11.2,2.2,15.3,6.3c8.4,8.4,8.4,22.2,0,30.7l-36.9,36.8c-0.8,0.8-1,2-0.7,3c0.4,1,1.3,1.8,2.4,1.9l25.7,2.5
			c0.1,0,0.2,0,0.3,0c0.8,0,1.5-0.3,2-0.8l25.3-25.3C198.1,70.2,198.1,40.1,179.6,21.6L179.6,21.6z M179.6,21.6"/>
	</g>
	<path id="XMLID_3437_" class="st1" d="M5.5,74.8L5.5,74.8l38.3-0.7c1.8,0,3.2-1.3,3.5-3.1c0.2-1.7-0.8-3.4-2.5-3.9L8,56.5
		c-1-0.3-2.1-0.1-2.9,0.4c-0.9,0.6-1.4,1.5-1.6,2.5L2,70.8c-0.1,1,0.2,2.1,0.9,2.8C3.5,74.4,4.5,74.8,5.5,74.8L5.5,74.8z M5.5,74.8"
		/>
	<path id="XMLID_3434_" class="st1" d="M66.2,45.4c0.4,1.6,1.8,2.7,3.4,2.7c0.2,0,0.3,0,0.5,0c1.7-0.2,3-1.8,3.1-3.6l0.7-40
		c0-1.1-0.4-2.1-1.2-2.8c-0.8-0.7-1.8-1.1-2.8-0.9L58.4,2.3c-1,0.1-1.9,0.7-2.5,1.7c-0.6,0.9-0.7,2-0.4,3.1L66.2,45.4z M66.2,45.4"
		/>
	<path id="XMLID_3431_" class="st1" d="M194.5,127.7l-38.2,0.7c-1.8,0-3.2,1.3-3.4,3.1c-0.2,1.7,0.8,3.4,2.5,3.9L192,146
		c0.3,0.1,0.7,0.1,1,0.1c0.7,0,1.3-0.2,1.9-0.6c0.9-0.6,1.4-1.5,1.6-2.5l1.5-11.4c0.1-1-0.2-2.1-0.9-2.8
		C196.5,128.1,195.5,127.7,194.5,127.7L194.5,127.7z M194.5,127.7"/>
	<path id="XMLID_3416_" class="st1" d="M134,156.6c-0.5-1.7-2.1-2.8-3.9-2.5c-1.7,0.2-3,1.7-3.1,3.4l-0.7,38.2c0,1,0.4,2,1.2,2.7
		c0.6,0.6,1.5,0.9,2.4,0.9c0.2,0,0.3,0,0.5,0l11.4-1.5c1-0.1,1.9-0.7,2.5-1.6c0.6-0.9,0.7-1.9,0.4-2.9L134,156.6z M134,156.6"/>
</g>
</svg>
