<?xml version="1.0" encoding="utf-8"?>
<!-- Generator: Adobe Illustrator 19.0.0, SVG Export Plug-In . SVG Version: 6.00 Build 0)  -->
<svg version="1.1" id="Capa_1" xmlns="http://www.w3.org/2000/svg" xmlns:xlink="http://www.w3.org/1999/xlink" x="0px" y="0px"
	 viewBox="0 0 200 200" style="enable-background:new 0 0 200 200;" xml:space="preserve">
<style type="text/css">
	.st0{fill:#B6DFE5;}
	.st1{fill:#1A90AF;}
</style>
<g id="XMLID_6704_">
	<path id="XMLID_7066_" class="st0" d="M15.9,96.3L39.9,35l13-6.7h103.2l26.8,64.8c0,0,0,42.3-1.4,43.3s-165.5,7-165.5,7V96.3z"/>
	<g id="XMLID_6705_">
		<path id="XMLID_6706_" class="st1" d="M191.2,60c-0.9,0-1.8,0.1-2.6,0.4l-10,2.8l-10.4-25.4c-3-7.2-11.7-13-19.4-13H51.2
			c-7.8,0-16.5,5.8-19.4,13L21.3,63l-9.9-2.7C10.5,60.1,9.6,60,8.8,60c-4.7,0-8.2,3.6-8.2,8.6v5.9C0.6,80.3,5.3,85,11.2,85h1.1
			l-1.7,4.1c-2.7,6.7-5,18-5,25.2v50.4c0,5.8,4.7,10.6,10.6,10.6H30c5.8,0,10.6-4.7,10.6-10.6v-12.6h118.7v12.6
			c0,5.8,4.7,10.6,10.6,10.6h13.8c5.8,0,10.6-4.7,10.6-10.6v-50.4c0-7.2-2.2-18.5-5-25.2l-1.7-4.1h1.3c5.8,0,10.6-4.7,10.6-10.6
			v-5.9C199.4,63.6,196,60,191.2,60L191.2,60z M28.9,79.3l15.8-38.4c1.8-4.3,7-7.8,11.7-7.8h87.2c4.6,0,9.9,3.5,11.7,7.8L171,79.3
			c1.8,4.3-0.6,7.8-5.2,7.8H34.1C29.5,87.1,27.1,83.6,28.9,79.3L28.9,79.3z M64.1,127.9c0,2.3-1.9,4.2-4.2,4.2H29.9
			c-2.3,0-4.2-1.9-4.2-4.2v-14.4c0-2.3,1.9-4.2,4.2-4.2h29.9c2.3,0,4.2,1.9,4.2,4.2V127.9z M173.9,127.9c0,2.3-1.9,4.2-4.2,4.2
			h-29.9c-2.3,0-4.2-1.9-4.2-4.2v-14.4c0-2.3,1.9-4.2,4.2-4.2h29.9c2.3,0,4.2,1.9,4.2,4.2V127.9z M173.9,127.9"/>
	</g>
</g>
</svg>
