<?xml version="1.0" encoding="utf-8"?>
<!-- Generator: Adobe Illustrator 19.0.0, SVG Export Plug-In . SVG Version: 6.00 Build 0)  -->
<svg version="1.1" id="Capa_1" xmlns="http://www.w3.org/2000/svg" xmlns:xlink="http://www.w3.org/1999/xlink" x="0px" y="0px"
	 viewBox="0 0 200 200" style="enable-background:new 0 0 200 200;" xml:space="preserve">
<style type="text/css">
	.st0{fill:#878787;}
	.st1{fill:#DADADA;}
</style>
<g id="XMLID_7011_">
	<path id="XMLID_7028_" class="st0" d="M161.7,21.2h-51.4v10.3H89.7V21.2H38.3c-3.8,0-6.9,3.1-6.9,6.9v164.5c0,3.8,3.1,6.9,6.9,6.9
		h123.4c3.8,0,6.9-3.1,6.9-6.9V28C168.5,24.3,165.5,21.2,161.7,21.2"/>
	<g id="XMLID_7019_">
		<path id="XMLID_7025_" class="st1" d="M100,62.3c-3.8,0-6.9,3.1-6.9,6.9S96.2,76,100,76s6.9-3.1,6.9-6.9S103.8,62.3,100,62.3
			 M100,82.9c-7.6,0-13.7-6.1-13.7-13.7s6.1-13.7,13.7-13.7s13.7,6.1,13.7,13.7S107.6,82.9,100,82.9"/>
		<path id="XMLID_7022_" class="st1" d="M100,48.6c-18.9,0-34.3,15.4-34.3,34.3s15.4,34.3,34.3,34.3s34.3-15.4,34.3-34.3
			S118.9,48.6,100,48.6 M100,124c-22.7,0-41.1-18.4-41.1-41.1S77.3,41.7,100,41.7s41.1,18.4,41.1,41.1S122.7,124,100,124"/>
		<path id="XMLID_7021_" class="st1" d="M150.8,159H49.2c-0.3,0-0.6-0.2-0.6-0.6l0-9.2c0-0.3,0.2-0.6,0.6-0.6h101.7
			c0.3,0,0.6,0.2,0.6,0.6v9.2C151.4,158.8,151.2,159,150.8,159z"/>
		<path id="XMLID_7020_" class="st1" d="M150.8,179.6H49.2c-0.3,0-0.6-0.2-0.6-0.6v-9.2c0-0.3,0.2-0.6,0.6-0.6l101.7,0
			c0.3,0,0.6,0.2,0.6,0.6v9.2C151.4,179.4,151.2,179.6,150.8,179.6z"/>
	</g>
	<polygon id="XMLID_7018_" class="st1" points="89.7,31.5 110.3,31.5 110.3,10.9 89.7,10.9 	"/>
	<g id="XMLID_7012_">
		<path id="XMLID_7017_" class="st1" d="M110.3,10.9c0-5.7-4.6-10.3-10.3-10.3S89.7,5.2,89.7,10.9H110.3z"/>
		<path id="XMLID_7013_" class="st1" d="M117.1,116.4L117.1,116.4L117.1,116.4z M86.3,114.2c8.7,3.8,18.7,3.8,27.4,0V96.6
			c0-7.6-6.1-13.7-13.7-13.7S86.3,89,86.3,96.6V114.2z M100,124c-6.5,0-12.8-1.5-18.7-4.5c-1.1-0.6-1.9-1.8-1.9-3.1V96.6
			C79.4,85.2,88.7,76,100,76s20.6,9.2,20.6,20.6v19.8c0,1.3-0.7,2.5-1.9,3.1C112.8,122.5,106.5,124,100,124L100,124z"/>
	</g>
</g>
</svg>
