<?xml version="1.0" encoding="utf-8"?>
<!-- Generator: Adobe Illustrator 19.0.0, SVG Export Plug-In . SVG Version: 6.00 Build 0)  -->
<svg version="1.1" id="Capa_1" xmlns="http://www.w3.org/2000/svg" xmlns:xlink="http://www.w3.org/1999/xlink" x="0px" y="0px"
	 viewBox="0 0 200 200" style="enable-background:new 0 0 200 200;" xml:space="preserve">
<style type="text/css">
	.st0{fill:#DADADA;}
	.st1{fill:#878787;}
</style>
<g id="XMLID_6968_">
	<circle id="XMLID_6975_" class="st0" cx="100.3" cy="109.3" r="81.1"/>
	<g id="XMLID_6969_">
		<g id="XMLID_6970_">
			<path id="XMLID_6971_" class="st1" d="M100,0.5C45.1,0.5,0.5,45.1,0.5,100c0,54.9,44.5,99.5,99.5,99.5
				c54.9,0,99.5-44.5,99.5-99.5C199.5,45.1,154.9,0.5,100,0.5L100,0.5z M100.3,146.9H57.2c0-31.1,27.3-31.1,33.4-39.2l0.7-3.7
				c-8.5-4.3-14.5-14.7-14.5-26.9c0-16,10.4-29,23.3-29c12.9,0,23.3,13,23.3,29c0,12.1-5.9,22.4-14.3,26.8l0.8,4.2
				c6.6,7.7,33,8.2,33,38.8H100.3z M100.3,146.9"/>
		</g>
	</g>
</g>
</svg>
