<?xml version="1.0" encoding="utf-8"?>
<!-- Generator: Adobe Illustrator 19.0.0, SVG Export Plug-In . SVG Version: 6.00 Build 0)  -->
<svg version="1.1" id="Capa_1" xmlns="http://www.w3.org/2000/svg" xmlns:xlink="http://www.w3.org/1999/xlink" x="0px" y="0px"
	 viewBox="0 0 200 200" style="enable-background:new 0 0 200 200;" xml:space="preserve">
<style type="text/css">
	.st0{fill:#DADADA;}
	.st1{fill:#878787;}
</style>
<g id="XMLID_6959_">
	<path id="XMLID_6967_" class="st0" d="M16.1,96.3L40,35.1l13-6.7h103l26.7,64.7c0,0,0,42.2-1.4,43.3c-1.4,1.1-165.3,7-165.3,7V96.3
		z"/>
	<g id="XMLID_6960_">
		<path id="XMLID_6961_" class="st1" d="M191.1,60c-0.9,0-1.8,0.1-2.6,0.4l-10,2.8L168,37.8c-2.9-7.2-11.7-13-19.4-13H51.2
			c-7.8,0-16.5,5.8-19.4,13L21.4,63.1l-9.9-2.7C10.7,60.1,9.8,60,8.9,60c-4.7,0-8.2,3.6-8.2,8.6v5.9c0,5.8,4.7,10.5,10.5,10.5h1.1
			l-1.7,4.1c-2.7,6.7-5,18-5,25.2v50.3c0,5.8,4.7,10.5,10.5,10.5h13.8c5.8,0,10.5-4.7,10.5-10.5v-12.6h118.5v12.6
			c0,5.8,4.7,10.5,10.5,10.5h13.8c5.8,0,10.5-4.7,10.5-10.5v-50.3c0-7.2-2.2-18.5-5-25.2l-1.7-4.1h1.3c5.8,0,10.5-4.7,10.5-10.5
			v-5.9C199.3,63.6,195.8,60,191.1,60L191.1,60z M29,79.3L44.7,41c1.8-4.3,7-7.8,11.6-7.8h87.1c4.6,0,9.9,3.5,11.6,7.8l15.7,38.3
			c1.8,4.3-0.6,7.8-5.2,7.8H34.2C29.6,87.1,27.2,83.6,29,79.3L29,79.3z M64.1,127.8c0,2.3-1.9,4.2-4.2,4.2H30
			c-2.3,0-4.2-1.9-4.2-4.2v-14.3c0-2.3,1.9-4.2,4.2-4.2h29.9c2.3,0,4.2,1.9,4.2,4.2V127.8z M173.8,127.8c0,2.3-1.9,4.2-4.2,4.2
			h-29.9c-2.3,0-4.2-1.9-4.2-4.2v-14.3c0-2.3,1.9-4.2,4.2-4.2h29.9c2.3,0,4.2,1.9,4.2,4.2V127.8z M173.8,127.8"/>
	</g>
</g>
</svg>
