<?xml version="1.0" encoding="utf-8"?>
<!-- Generator: Adobe Illustrator 19.0.0, SVG Export Plug-In . SVG Version: 6.00 Build 0)  -->
<svg version="1.1" id="Capa_1" xmlns="http://www.w3.org/2000/svg" xmlns:xlink="http://www.w3.org/1999/xlink" x="0px" y="0px"
	 viewBox="0 0 100 100" style="enable-background:new 0 0 100 100;" xml:space="preserve">
<style type="text/css">
	.st0{fill:#A51916;}
	.st1{fill:#E30613;}
	.st2{fill:#F9D0D5;}
</style>
<g id="XMLID_3414_">
	<polygon id="XMLID_6707_" class="st0" points="50,61.1 59.5,61.1 54.8,79.9 50,98.6 45.2,79.9 40.5,61.1 	"/>
	<circle id="XMLID_6706_" class="st0" cx="50" cy="37.6" r="36.2"/>
	<circle id="XMLID_6705_" class="st1" cx="50" cy="37.6" r="28.6"/>
	<g id="XMLID_3416_">
		<g id="XMLID_3421_">
			<path id="XMLID_3431_" class="st2" d="M35.8,36c-0.6,0.4-1.9,1.8-1.9,5.1v3.2c0,1,0.8,1.9,1.9,1.9h0.5c0.2,2.2,2,3.9,4.2,3.9
				c2.2,0,4-1.7,4.2-3.9h3c0.2,2.2,2,3.9,4.2,3.9c1.9,0,3.5-1.3,4-3c0.5,1.7,2.1,3,4,3c2.2,0,4-1.7,4.2-3.9H65c0.6,0,1.1-0.4,1.1-1
				V26.6c0-0.7-0.6-1.3-1.3-1.3H45.7c-0.7,0-1.3,0.6-1.3,1.3v3.6H41c-1,0-2.2,0.7-2.7,1.6C38.4,31.8,36.7,35.3,35.8,36L35.8,36z
				 M60.1,47.4c-0.9,0-1.6-0.7-1.6-1.6c0-0.9,0.7-1.6,1.6-1.6c0.9,0,1.6,0.7,1.6,1.6C61.7,46.7,61,47.4,60.1,47.4L60.1,47.4z
				 M52,47.4c-0.9,0-1.6-0.7-1.6-1.6c0-0.9,0.7-1.6,1.6-1.6c0.9,0,1.6,0.7,1.6,1.6C53.6,46.7,52.9,47.4,52,47.4L52,47.4z M49.5,29.4
				H61v9.2H49.5V29.4z M40.6,47.4c-0.9,0-1.6-0.7-1.6-1.6c0-0.9,0.7-1.6,1.6-1.6c0.9,0,1.6,0.7,1.6,1.6
				C42.1,46.7,41.4,47.4,40.6,47.4L40.6,47.4z M37.6,37.6c-0.2-0.3,0.3-1.2,0.6-1.8c0-0.1,0.1-0.2,0.1-0.2l1.3-2.6
				c0.3-0.7,1.3-1.2,2-1.2h2.8v5.9l-6.6,0C37.7,37.7,37.6,37.6,37.6,37.6L37.6,37.6z M37.6,37.6"/>
		</g>
		<rect id="XMLID_3418_" x="48.6" y="28.1" class="st2" width="13.8" height="12.2"/>
	</g>
</g>
</svg>
