<?xml version="1.0" encoding="utf-8"?>
<!-- Generator: Adobe Illustrator 19.0.0, SVG Export Plug-In . SVG Version: 6.00 Build 0)  -->
<svg version="1.1" id="Capa_1" xmlns="http://www.w3.org/2000/svg" xmlns:xlink="http://www.w3.org/1999/xlink" x="0px" y="0px"
	 viewBox="0 0 100 100" style="enable-background:new 0 0 100 100;" xml:space="preserve">
<style type="text/css">
	.st0{fill:#FDC61F;}
	.st1{fill:#FFE187;}
	.st2{fill:#FFF5DC;}
</style>
<g id="XMLID_2_">
	<polygon id="XMLID_3329_" class="st0" points="50,61.1 59.5,61.1 54.8,79.9 50,98.6 45.2,79.9 40.5,61.1 	"/>
	<circle id="XMLID_3328_" class="st0" cx="50" cy="37.6" r="36.2"/>
	<circle id="XMLID_3327_" class="st1" cx="50" cy="37.6" r="28.6"/>
	<path id="XMLID_1159_" class="st0" d="M61.7,52.9H38.3c-2,0-3.5-1.6-3.5-3.5V25.9c0-2,1.6-3.5,3.5-3.5h23.5c2,0,3.5,1.6,3.5,3.5
		v23.5C65.3,51.3,63.7,52.9,61.7,52.9z"/>
	<path id="XMLID_3439_" class="st2" d="M60.3,49.9H39.7c-1.1,0-2-0.9-2-2V27.3c0-1.1,0.9-2,2-2h20.7c1.1,0,2,0.9,2,2v20.7
		C62.3,49,61.4,49.9,60.3,49.9z"/>
</g>
</svg>
