<?xml version="1.0" encoding="utf-8"?>
<!-- Generator: Adobe Illustrator 19.0.0, SVG Export Plug-In . SVG Version: 6.00 Build 0)  -->
<svg version="1.1" id="Capa_1" xmlns="http://www.w3.org/2000/svg" xmlns:xlink="http://www.w3.org/1999/xlink" x="0px" y="0px"
	 viewBox="0 0 100 100" style="enable-background:new 0 0 100 100;" xml:space="preserve">
<style type="text/css">
	.st0{fill:#008D36;}
	.st1{fill:#95C11F;}
	.st2{fill:#F1F3CB;}
</style>
<g id="XMLID_1_">
	<g id="XMLID_2717_">
		<polygon id="XMLID_6702_" class="st0" points="50,61.1 59.5,61.1 54.8,79.9 50,98.6 45.2,79.9 40.5,61.1 		"/>
		<circle id="XMLID_6701_" class="st0" cx="50" cy="37.6" r="36.2"/>
		<circle id="XMLID_6704_" class="st1" cx="50" cy="37.6" r="28.6"/>
	</g>
	<g id="XMLID_3413_">
		<g id="XMLID_3337_">
			<path id="XMLID_3338_" class="st2" d="M64.8,36.1C64,35.5,62.3,32,62.3,32c-0.5-0.9-1.7-1.6-2.7-1.6h-3.4v-3.6
				c0-0.7-0.6-1.3-1.3-1.3H35.8c-0.7,0-1.3,0.6-1.3,1.3v18.5c0,0.5,0.5,1,1.1,1h0.7c0.2,2.2,2,3.9,4.2,3.9c1.9,0,3.5-1.3,4-3
				c0.5,1.7,2.1,3,4,3c2.2,0,4-1.7,4.2-3.9h3c0.2,2.2,2,3.9,4.2,3.9c2.2,0,4-1.7,4.2-3.9h0.5c1,0,1.9-0.9,1.9-1.9v-3.2
				C66.8,38,65.4,36.6,64.8,36.1L64.8,36.1z M40.5,47.6c-0.9,0-1.6-0.7-1.6-1.6c0-0.9,0.7-1.6,1.6-1.6c0.9,0,1.6,0.7,1.6,1.6
				C42.1,46.9,41.4,47.6,40.5,47.6L40.5,47.6z M48.6,47.6c-0.9,0-1.6-0.7-1.6-1.6c0-0.9,0.7-1.6,1.6-1.6c0.9,0,1.6,0.7,1.6,1.6
				C50.2,46.9,49.5,47.6,48.6,47.6L48.6,47.6z M51.2,38.8H39.6v-9.2h11.5V38.8z M60.1,47.6c-0.9,0-1.6-0.7-1.6-1.6
				c0-0.9,0.7-1.6,1.6-1.6c0.9,0,1.6,0.7,1.6,1.6C61.7,46.9,61,47.6,60.1,47.6L60.1,47.6z M63.1,37.8c0,0.1-0.1,0.1-0.3,0.1l-6.6,0
				v-5.9H59c0.8,0,1.7,0.6,2,1.2l1.3,2.6c0,0.1,0.1,0.2,0.1,0.2C62.8,36.6,63.3,37.5,63.1,37.8L63.1,37.8z M63.1,37.8"/>
		</g>
		<rect id="XMLID_3411_" x="38.3" y="28.3" class="st2" width="13.8" height="12.2"/>
	</g>
</g>
</svg>
