<?xml version="1.0" encoding="utf-8"?>
<!-- Generator: Adobe Illustrator 19.0.0, SVG Export Plug-In . SVG Version: 6.00 Build 0)  -->
<svg version="1.1" id="Capa_1" xmlns="http://www.w3.org/2000/svg" xmlns:xlink="http://www.w3.org/1999/xlink" x="0px" y="0px"
	 viewBox="0 0 200 200" style="enable-background:new 0 0 200 200;" xml:space="preserve">
<style type="text/css">
	.st0{fill:#188FAF;}
	.st1{fill:#B6DEE4;}
	.st2{fill:#FFFFFF;}
</style>
<g id="XMLID_7313_">
	<g id="XMLID_7330_">
		<circle id="XMLID_7331_" class="st0" cx="100" cy="100" r="100"/>
	</g>
	<circle id="XMLID_7312_" class="st1" cx="96.8" cy="102.3" r="21.2"/>
	<g id="XMLID_7332_">
		<path id="XMLID_7336_" class="st2" d="M168.2,92.5l-15.7-11.9c-1.4-1.1-3.3-1.3-4.9-0.5c-1.6,0.8-2.6,2.4-2.6,4.2v7.3h-4.7v-7.3
			c0-2.6-2.1-4.7-4.7-4.7h-9.3V62.1c0-2.6-2.1-4.7-4.7-4.7H107v-5h4c2.6,0,4.7-2.1,4.7-4.7S113.6,43,111,43H80.6
			C78,43,76,45.1,76,47.7c0,2.6,2.1,4.7,4.7,4.7h3.9v5H66.4c-2.6,0-4.7,2.1-4.7,4.7v9.2h-9.2c-2.6,0-4.7,2.1-4.7,4.7v10.7h-8.5V73.4
			c0-2.6-2.1-4.7-4.7-4.7c-2.6,0-4.7,2.1-4.7,4.7v49c0,2.6,2.1,4.7,4.7,4.7c2.6,0,4.7-2.1,4.7-4.7v-13.3h8.5v11
			c0,2.6,2.1,4.7,4.7,4.7h11.8l16.6,20.4c0.9,1.1,2.3,1.8,3.7,1.8h51.1c2.6,0,4.7-2.1,4.7-4.7V136h4.7v6.2c0,1.8,1.1,3.5,2.8,4.2
			c0.6,0.3,1.3,0.4,2,0.4c1.1,0,2.2-0.4,3-1.1l15.7-13.5c1.1-0.9,1.6-2.2,1.6-3.5V96.2C170,94.8,169.4,93.4,168.2,92.5z M96.8,121.5
			c-11.1,0-20.2-9-20.2-20.2s9-20.2,20.2-20.2s20.2,9,20.2,20.2S107.9,121.5,96.8,121.5z"/>
	</g>
</g>
</svg>
