<?xml version="1.0" encoding="utf-8"?>
<!-- Generator: Adobe Illustrator 19.0.0, SVG Export Plug-In . SVG Version: 6.00 Build 0)  -->
<svg version="1.1" id="Capa_1" xmlns="http://www.w3.org/2000/svg" xmlns:xlink="http://www.w3.org/1999/xlink" x="0px" y="0px"
	 viewBox="0 0 200 200" style="enable-background:new 0 0 200 200;" xml:space="preserve">
<style type="text/css">
	.st0{fill:#008D36;}
	.st1{fill:#95C11F;}
	.st2{fill:#F1F3CB;}
</style>
<g id="XMLID_7218_">
	<circle id="XMLID_7231_" class="st0" cx="100" cy="100" r="99.3"/>
	<circle id="XMLID_7230_" class="st1" cx="100" cy="100" r="80.7"/>
	<g id="XMLID_7219_">
		<g id="XMLID_7221_">
			<path id="XMLID_7222_" class="st2" d="M140.1,95c-2.4-1.9-7.2-11.6-7.2-11.7c-1.3-2.5-4.7-4.6-7.5-4.6h-9.6v-10
				c0-2-1.6-3.6-3.6-3.6H58.1c-2,0-3.6,1.6-3.6,3.6v52.4c0,1.6,1.3,2.8,3,2.8h1.9c0.5,6.1,5.7,10.9,11.9,10.9
				c5.4,0,9.9-3.5,11.4-8.4c1.5,4.9,6.1,8.4,11.4,8.4c6.2,0,11.4-4.8,11.9-10.9h8.6c0.5,6.1,5.7,10.9,11.9,10.9
				c6.2,0,11.4-4.8,11.9-10.9h1.5c3,0,5.4-2.4,5.4-5.4v-9.2C145.5,100.2,141.7,96.3,140.1,95L140.1,95z M71.3,127.3
				c-2.4,0-4.4-2-4.4-4.4c0-2.4,2-4.4,4.4-4.4c2.4,0,4.4,2,4.4,4.4C75.8,125.3,73.8,127.3,71.3,127.3L71.3,127.3z M94.2,127.3
				c-2.4,0-4.4-2-4.4-4.4c0-2.4,2-4.4,4.4-4.4c2.4,0,4.4,2,4.4,4.4C98.7,125.3,96.7,127.3,94.2,127.3L94.2,127.3z M101.4,102.5H68.8
				V76.6h32.6V102.5z M126.7,127.3c-2.4,0-4.4-2-4.4-4.4c0-2.4,2-4.4,4.4-4.4c2.4,0,4.4,2,4.4,4.4
				C131.1,125.3,129.1,127.3,126.7,127.3L126.7,127.3z M135.2,99.7c-0.1,0.1-0.3,0.2-0.7,0.2l-18.7,0V83.2h7.9
				c2.1,0,4.8,1.6,5.8,3.5L133,94c0.1,0.2,0.2,0.4,0.3,0.7C134.3,96.4,135.6,98.9,135.2,99.7L135.2,99.7z M135.2,99.7"/>
		</g>
		<rect id="XMLID_7220_" x="65.1" y="72.8" class="st2" width="38.9" height="34.4"/>
	</g>
</g>
</svg>
