<?xml version="1.0" encoding="utf-8"?>
<!-- Generator: Adobe Illustrator 19.0.0, SVG Export Plug-In . SVG Version: 6.00 Build 0)  -->
<svg version="1.1" id="Capa_1" xmlns="http://www.w3.org/2000/svg" xmlns:xlink="http://www.w3.org/1999/xlink" x="0px" y="0px"
	 viewBox="0 0 425.2 425.2" style="enable-background:new 0 0 425.2 425.2;" xml:space="preserve">
<style type="text/css">
	.st0{fill:#DADADA;}
	.st1{fill:#878787;}
</style>
<g id="XMLID_4459_">
	<circle id="XMLID_4465_" class="st0" cx="212.6" cy="212.6" r="208.8"/>
	<g id="XMLID_4460_">
		<g id="XMLID_4461_">
			<path id="XMLID_4462_" class="st1" d="M348.7,138.2l-30.9-30.9c-3.7-3.7-9.6-3.7-13.3,0L175.6,236.2l-54.8-54.8
				c-3.7-3.7-9.6-3.7-13.3,0l-30.9,30.9c-3.7,3.7-3.7,9.6,0,13.3l92.4,92.4c1.8,1.8,4.2,2.7,6.6,2.7c2.4,0,4.8-0.9,6.6-2.7
				l166.5-166.5c1.8-1.8,2.7-4.1,2.7-6.6C351.4,142.4,350.4,140,348.7,138.2L348.7,138.2z M348.7,138.2"/>
		</g>
	</g>
</g>
</svg>
