<?xml version="1.0" encoding="utf-8"?>
<!-- Generator: Adobe Illustrator 19.0.0, SVG Export Plug-In . SVG Version: 6.00 Build 0)  -->
<svg version="1.1" id="Capa_1" xmlns="http://www.w3.org/2000/svg" xmlns:xlink="http://www.w3.org/1999/xlink" x="0px" y="0px"
	 viewBox="0 0 425.2 425.2" style="enable-background:new 0 0 425.2 425.2;" xml:space="preserve">
<style type="text/css">
	.st0{fill:#C1B8B9;}
	.st1{fill:#D7CFD1;}
	.st2{fill:#EDE7EB;}
	.st3{fill:#E94945;}
	.st4{fill:#FFFFFF;}
	.st5{fill:#E1DFE0;}
	.st6{fill:#1A90AF;}
</style>
<g id="XMLID_1385_">
	<polygon id="XMLID_1383_" class="st0" points="35.5,388.6 35.5,415.1 389.7,415.1 389.7,388.6 212.6,362 	"/>
	<polygon id="XMLID_1382_" class="st1" points="35.5,362 35.5,388.6 389.7,388.6 389.7,300 	"/>
	<polygon id="XMLID_1381_" class="st2" points="389.7,131.8 389.7,300 345.4,317.7 327.7,362 35.5,362 35.5,131.8 212.6,105.2 	"/>
	<rect id="XMLID_1380_" x="35.5" y="34.4" class="st3" width="354.2" height="97.4"/>
	<g id="XMLID_2052_">
		<path id="XMLID_1377_" class="st4" d="M260,300.9c-3.7,0-6.6-3-6.6-6.6v-78.7l-7.6,7.6c-2.6,2.6-6.8,2.6-9.4,0
			c-2.6-2.6-2.6-6.8,0-9.4l18.9-18.9c1.9-1.9,4.8-2.5,7.2-1.4c2.5,1,4.1,3.4,4.1,6.1v94.7C266.7,297.9,263.7,300.9,260,300.9z"/>
		<path id="XMLID_1362_" class="st4" d="M189.8,300.9c-17.3,0-31.3-14.1-31.3-31.3c0-3.7,3-6.6,6.6-6.6c3.7,0,6.6,3,6.6,6.6
			c0,10,8.1,18,18,18c10,0,18-8.1,18-18c0-7.2-4.3-13.7-10.9-16.6c-2.4-1-4-3.4-4-6.1s1.6-5,4-6.1c6.6-2.9,10.9-9.4,10.9-16.6
			c0-10-8.1-18-18-18c-10,0-18,8.1-18,18c0,3.7-3,6.6-6.6,6.6c-3.7,0-6.6-3-6.6-6.6c0-17.3,14.1-31.3,31.3-31.3
			c17.3,0,31.3,14.1,31.3,31.3c0,8.7-3.6,16.9-9.7,22.7c6.1,5.8,9.7,13.9,9.7,22.7C221.2,286.9,207.1,300.9,189.8,300.9z"/>
	</g>
	<g id="XMLID_2033_">
		<path id="XMLID_1361_" class="st5" d="M318.9,89.7c-3.7,0-6.6-3-6.6-6.6V16.7c0-3.7,3-6.6,6.6-6.6c3.7,0,6.6,3,6.6,6.6v66.4
			C325.5,86.8,322.5,89.7,318.9,89.7z"/>
		<path id="XMLID_1360_" class="st5" d="M106.3,89.7c-3.7,0-6.6-3-6.6-6.6V16.7c0-3.7,3-6.6,6.6-6.6c3.7,0,6.6,3,6.6,6.6v66.4
			C113,86.8,110,89.7,106.3,89.7z"/>
	</g>
	<polygon id="XMLID_1355_" class="st4" points="389.7,300 327.7,362 327.7,300 	"/>
</g>
<rect id="XMLID_1363_" x="-15.5" y="-103.9" class="st6" width="390.1" height="78.2"/>
<rect id="XMLID_22_" x="-47.3" y="-75" style="fill:none;" width="468" height="43.6"/>
<text id="XMLID_1190_" transform="matrix(1 0 0 1 54.0449 -53.7075)" class="st4" style="font-family:'MyriadPro-Regular'; font-size:30px;">Reporte de Recorrido</text>
<path id="XMLID_1375_" class="st6" d="M217.4,506.3h-89c-2.9,0-5.2-2.3-5.2-5.2v-19c0-2.9,2.3-5.2,5.2-5.2h89c2.9,0,5.2,2.3,5.2,5.2
	v19C222.6,504,220.3,506.3,217.4,506.3z"/>
<path id="XMLID_1384_" class="st6" d="M347.3,506.3h-89c-2.9,0-5.2-2.3-5.2-5.2v-19c0-2.9,2.3-5.2,5.2-5.2h89c2.9,0,5.2,2.3,5.2,5.2
	v19C352.5,504,350.2,506.3,347.3,506.3z"/>
<text id="XMLID_1386_" transform="matrix(1 0 0 1 145.6631 496.7603)" class="st4" style="font-family:'MyriadPro-Regular'; font-size:12px;">CANCELAR</text>
<text id="XMLID_2032_" transform="matrix(1 0 0 1 280.749 496.7603)" class="st4" style="font-family:'MyriadPro-Regular'; font-size:12px;">ACEPTAR</text>
</svg>
