<?xml version="1.0" encoding="utf-8"?>
<!-- Generator: Adobe Illustrator 19.0.0, SVG Export Plug-In . SVG Version: 6.00 Build 0)  -->
<svg version="1.1" id="Capa_1" xmlns="http://www.w3.org/2000/svg" xmlns:xlink="http://www.w3.org/1999/xlink" x="0px" y="0px"
	 viewBox="0 0 425.2 425.2" style="enable-background:new 0 0 425.2 425.2;" xml:space="preserve">
<style type="text/css">
	.st0{fill:#1A90AF;}
	.st1{fill:#FFFFFF;}
	.st2{fill:#DADADA;}
	.st3{fill:#878787;}
</style>
<rect id="XMLID_1363_" x="-15.5" y="-103.9" class="st0" width="390.1" height="78.2"/>
<rect id="XMLID_22_" x="-47.3" y="-75" style="fill:none;" width="468" height="43.6"/>
<text id="XMLID_1190_" transform="matrix(1 0 0 1 54.0449 -53.7075)" class="st1" style="font-family:'MyriadPro-Regular'; font-size:30px;">Reporte de Recorrido</text>
<path id="XMLID_1375_" class="st0" d="M217.4,506.3h-89c-2.9,0-5.2-2.3-5.2-5.2v-19c0-2.9,2.3-5.2,5.2-5.2h89c2.9,0,5.2,2.3,5.2,5.2
	v19C222.6,504,220.3,506.3,217.4,506.3z"/>
<path id="XMLID_1384_" class="st0" d="M347.3,506.3h-89c-2.9,0-5.2-2.3-5.2-5.2v-19c0-2.9,2.3-5.2,5.2-5.2h89c2.9,0,5.2,2.3,5.2,5.2
	v19C352.5,504,350.2,506.3,347.3,506.3z"/>
<text id="XMLID_1386_" transform="matrix(1 0 0 1 145.6631 496.7603)" class="st1" style="font-family:'MyriadPro-Regular'; font-size:12px;">CANCELAR</text>
<text id="XMLID_2032_" transform="matrix(1 0 0 1 280.749 496.7603)" class="st1" style="font-family:'MyriadPro-Regular'; font-size:12px;">ACEPTAR</text>
<g id="XMLID_113_">
	<path id="XMLID_2389_" class="st2" d="M360.4,169.5v-54L249.5,5.1H40.4c-13.6,0-24.6,11-24.6,24.6v155.6v180.9v8.2
		c0,13.6,11,24.6,24.6,24.6h8.2h82.4L360.4,169.5z"/>
	<path id="XMLID_2439_" class="st3" d="M360.4,115.9h-85.8c-13.6,0-24.6-11-24.6-24.6V5.3L360.4,115.9z M360.4,115.9"/>
	<g id="XMLID_1334_">
		
			<rect id="XMLID_1332_" x="270.3" y="164.1" transform="matrix(0.7071 0.7071 -0.7071 0.7071 294.3163 -125.5002)" class="st3" width="56.6" height="256.8"/>
		<polygon id="XMLID_1333_" class="st3" points="171.1,420.1 177.9,394.1 184.8,368.1 203.9,387.2 223.1,406.4 197.1,413.2 		"/>
	</g>
	<rect id="XMLID_1335_" x="15.7" y="167.7" class="st3" width="0" height="0"/>
	<path id="XMLID_2355_" class="st2" d="M254.7,399h77.8c15.4,0,27.9-12.5,27.9-27.9v-77.8L254.7,399z"/>
</g>
</svg>
