<?xml version="1.0" encoding="utf-8"?>
<!-- Generator: Adobe Illustrator 19.0.0, SVG Export Plug-In . SVG Version: 6.00 Build 0)  -->
<svg version="1.1" id="Capa_1" xmlns="http://www.w3.org/2000/svg" xmlns:xlink="http://www.w3.org/1999/xlink" x="0px" y="0px"
	 viewBox="0 0 425.2 425.2" style="enable-background:new 0 0 425.2 425.2;" xml:space="preserve">
<style type="text/css">
	.st0{fill:#DADADA;}
	.st1{fill:#E30613;}
</style>
<g id="XMLID_12213_">
	<g id="XMLID_12215_">
		<path id="XMLID_12216_" class="st0" d="M212.7,4.7c-78,0-141.3,62.8-141.3,140.3c0,39.6,38.9,110.7,38.9,110.7l97.1,164.8
			l101.4-162.9c0,0,45-67.7,45-112.6C353.8,67.6,290.6,4.7,212.7,4.7L212.7,4.7z M212,222.3c-44.7,0-80.9-36.2-80.9-80.9
			c0-44.6,36.2-80.8,80.9-80.8c44.7,0,80.9,36.2,80.9,80.8C292.8,186.1,256.6,222.3,212,222.3L212,222.3z M212,222.3"/>
	</g>
	<circle id="XMLID_12214_" class="st1" cx="212" cy="141.4" r="46"/>
</g>
</svg>
