<?xml version="1.0" encoding="utf-8"?>
<!-- Generator: Adobe Illustrator 19.0.0, SVG Export Plug-In . SVG Version: 6.00 Build 0)  -->
<svg version="1.1" id="Capa_1" xmlns="http://www.w3.org/2000/svg" xmlns:xlink="http://www.w3.org/1999/xlink" x="0px" y="0px"
	 viewBox="0 0 425.2 425.2" style="enable-background:new 0 0 425.2 425.2;" xml:space="preserve">
<style type="text/css">
	.st0{fill:#1A90AF;}
</style>
<g id="XMLID_4528_">
	<path id="XMLID_2_" class="st0" d="M343.3,422.6H82c-43.7,0-79.3-35.6-79.3-79.3V81.9C2.6,38.2,38.2,2.6,82,2.6h261.3
		c43.7,0,79.3,35.6,79.3,79.3v261.3C422.6,387,387,422.6,343.3,422.6z M82,39C58.3,39,39,58.3,39,81.9v261.3
		c0,23.7,19.3,42.9,42.9,42.9h261.3c23.7,0,42.9-19.3,42.9-42.9V81.9c0-23.7-19.3-42.9-42.9-42.9H82z"/>
</g>
</svg>
