<?xml version="1.0" encoding="utf-8"?>
<!-- Generator: Adobe Illustrator 19.0.0, SVG Export Plug-In . SVG Version: 6.00 Build 0)  -->
<svg version="1.1" id="Capa_1" xmlns="http://www.w3.org/2000/svg" xmlns:xlink="http://www.w3.org/1999/xlink" x="0px" y="0px"
	 viewBox="0 0 425.2 425.2" style="enable-background:new 0 0 425.2 425.2;" xml:space="preserve">
<style type="text/css">
	.st0{fill:#1A90AF;}
</style>
<g id="XMLID_4530_">
	<g id="XMLID_4697_">
		<path id="XMLID_5401_" class="st0" d="M416.3,101.2L370,54.9c-5.5-5.5-14.4-5.5-19.9,0L157.2,247.9l-82.1-82.1
			c-5.5-5.5-14.4-5.5-19.9,0L8.9,212.1c-5.5,5.5-5.5,14.4,0,19.9l138.3,138.3c2.7,2.7,6.3,4.1,9.9,4.1s7.2-1.4,9.9-4.1l249.2-249.2
			c2.6-2.6,4.1-6.2,4.1-9.9C420.4,107.4,418.9,103.9,416.3,101.2L416.3,101.2z M416.3,101.2"/>
	</g>
</g>
</svg>
