<?xml version="1.0" encoding="utf-8"?>
<!-- Generator: Adobe Illustrator 19.0.0, SVG Export Plug-In . SVG Version: 6.00 Build 0)  -->
<svg version="1.1" id="Capa_1" xmlns="http://www.w3.org/2000/svg" xmlns:xlink="http://www.w3.org/1999/xlink" x="0px" y="0px"
	 viewBox="0 0 425.2 425.2" style="enable-background:new 0 0 425.2 425.2;" xml:space="preserve">
<style type="text/css">
	.st0{fill:#1A90AF;}
	.st1{fill:#FFFFFF;}
	.st2{fill:#DADADA;}
	.st3{fill:#878787;}
</style>
<rect id="XMLID_1363_" x="-15.5" y="-103.9" class="st0" width="390.1" height="78.2"/>
<rect id="XMLID_22_" x="-47.3" y="-75" style="fill:none;" width="468" height="43.6"/>
<text id="XMLID_1190_" transform="matrix(1 0 0 1 54.0449 -53.7075)" class="st1" style="font-family:'MyriadPro-Regular'; font-size:30px;">Reporte de Recorrido</text>
<path id="XMLID_1375_" class="st0" d="M217.4,506.3h-89c-2.9,0-5.2-2.3-5.2-5.2v-19c0-2.9,2.3-5.2,5.2-5.2h89c2.9,0,5.2,2.3,5.2,5.2
	v19C222.6,504,220.3,506.3,217.4,506.3z"/>
<path id="XMLID_1384_" class="st0" d="M347.3,506.3h-89c-2.9,0-5.2-2.3-5.2-5.2v-19c0-2.9,2.3-5.2,5.2-5.2h89c2.9,0,5.2,2.3,5.2,5.2
	v19C352.5,504,350.2,506.3,347.3,506.3z"/>
<text id="XMLID_1386_" transform="matrix(1 0 0 1 145.6631 496.7603)" class="st1" style="font-family:'MyriadPro-Regular'; font-size:12px;">CANCELAR</text>
<text id="XMLID_2032_" transform="matrix(1 0 0 1 280.749 496.7603)" class="st1" style="font-family:'MyriadPro-Regular'; font-size:12px;">ACEPTAR</text>
<g id="XMLID_4819_">
	<path id="XMLID_4863_" class="st2" d="M174,318.5c0-68.2,55.3-123.6,123.6-123.6c30.5,0,58,11.4,79.5,29.7V117.1L264.7,5.1H52.6
		c-13.8,0-25,11.2-25,25v349.5c0,13.8,11.2,25,25,25h156.6C187.5,382.3,174,352,174,318.5z"/>
	<path id="XMLID_4827_" class="st3" d="M377.1,117.4h-87c-13.8,0-25-11.2-25-25V5.3L377.1,117.4z M377.1,117.4"/>
	<circle id="XMLID_4720_" class="st3" cx="293.4" cy="315.8" r="104.3"/>
	<polygon id="XMLID_4832_" class="st2" points="358.4,302.4 306.8,302.4 306.8,250.8 279.9,250.8 279.9,302.4 228.3,302.4 
		228.3,329.3 279.9,329.3 279.9,380.9 306.8,380.9 306.8,329.3 358.4,329.3 	"/>
</g>
</svg>
