<?xml version="1.0" encoding="utf-8"?>
<!-- Generator: Adobe Illustrator 19.0.0, SVG Export Plug-In . SVG Version: 6.00 Build 0)  -->
<svg version="1.1" id="Capa_1" xmlns="http://www.w3.org/2000/svg" xmlns:xlink="http://www.w3.org/1999/xlink" x="0px" y="0px"
	 viewBox="0 0 425.2 425.2" style="enable-background:new 0 0 425.2 425.2;" xml:space="preserve">
<style type="text/css">
	.st0{fill:#1A90AF;}
	.st1{fill:#B6DFE5;}
	.st2{fill:#FFFFFF;}
</style>
<g id="XMLID_1734_">
	<circle id="XMLID_1004_" class="st0" cx="212.6" cy="212.6" r="208.4"/>
	<g id="XMLID_1015_">
		<g id="XMLID_1039_">
			<rect id="XMLID_1121_" x="115.6" y="275.6" class="st1" width="198.6" height="13.1"/>
			<rect id="XMLID_1120_" x="203.7" y="169.2" class="st1" width="13.1" height="119.4"/>
			<path id="XMLID_1116_" class="st2" d="M246.1,109.8h-67c-9.6,0-17.2,7.8-17.2,17.4v67.2c0,9.6,7.8,17.4,17.2,17.4h67.2
				c9.6,0,17.2-7.8,17.2-17.4V127C263.5,117.4,255.7,109.8,246.1,109.8L246.1,109.8z M246.1,109.8"/>
			<path id="XMLID_1112_" class="st2" d="M331.6,249h-43.7c-6.3,0-11.3,5-11.3,11.3v43.7c0,6.3,5,11.3,11.3,11.3h43.7
				c6.3,0,11.3-5,11.3-11.3v-43.7C342.9,254,337.7,249,331.6,249L331.6,249z M331.6,249"/>
			<path id="XMLID_1108_" class="st2" d="M234.6,249h-43.9c-6.3,0-11.3,5-11.3,11.3v43.7c0,6.3,5,11.3,11.3,11.3h43.7
				c6.3,0,11.3-5,11.3-11.3v-43.7C245.7,254,240.7,249,234.6,249L234.6,249z M234.6,249"/>
			<path id="XMLID_1054_" class="st2" d="M137.3,249H93.6c-6.3,0-11.3,5-11.3,11.3v43.7c0,6.3,5,11.3,11.3,11.3h43.7
				c6.3,0,11.3-5,11.3-11.3v-43.7C148.6,254,143.6,249,137.3,249L137.3,249z M137.3,249"/>
		</g>
	</g>
</g>
</svg>
