<?xml version="1.0" encoding="utf-8"?>
<!-- Generator: Adobe Illustrator 19.0.0, SVG Export Plug-In . SVG Version: 6.00 Build 0)  -->
<svg version="1.1" id="Capa_1" xmlns="http://www.w3.org/2000/svg" xmlns:xlink="http://www.w3.org/1999/xlink" x="0px" y="0px"
	 viewBox="0 0 425.2 425.2" style="enable-background:new 0 0 425.2 425.2;" xml:space="preserve">
<style type="text/css">
	.st0{fill:#B6BF0F;}
	.st1{fill:#878787;}
</style>
<g id="XMLID_12645_">
	<path id="XMLID_12647_" class="st0" d="M420.2,161.4V300c0,15.4-12.5,27.9-27.9,27.9h-26.8v44.9l-43.2-44.9H149
		c-15.4,0-27.9-12.5-27.9-27.9V161.4c0-15.4,12.5-27.9,27.9-27.9h243.3C407.7,133.5,420.2,146,420.2,161.4L420.2,161.4z
		 M420.2,161.4"/>
	<path id="XMLID_12646_" class="st1" d="M276.2,52.4H32.9C17.5,52.4,5,64.9,5,80.3v138.6c0,15.4,12.5,27.9,27.9,27.9h26.8v44.9
		l40.8-42.4V140.8c0-15.4,12.5-27.9,27.9-27.9h175.8V80.3C304.1,64.9,291.6,52.4,276.2,52.4z"/>
</g>
</svg>
