<?xml version="1.0" encoding="utf-8"?>
<!-- Generator: Adobe Illustrator 19.0.0, SVG Export Plug-In . SVG Version: 6.00 Build 0)  -->
<svg version="1.1" id="Capa_1" xmlns="http://www.w3.org/2000/svg" xmlns:xlink="http://www.w3.org/1999/xlink" x="0px" y="0px"
	 viewBox="0 0 425.2 425.2" style="enable-background:new 0 0 425.2 425.2;" xml:space="preserve">
<style type="text/css">
	.st0{fill:#599574;}
</style>
<g id="XMLID_1378_">
	<path id="XMLID_2386_" class="st0" d="M408.4,51.5H260.9v48.1h48.8v32.6h-48.8v32h48.3v32.2h-48.3v32.1h48.3v32.2h-48.3v32.1h48.3
		v32.2h-48.3v48.3h147.5c7.5,0,13.5-6.3,13.5-14V65.6C421.9,57.8,415.9,51.5,408.4,51.5L408.4,51.5z M389.7,325.3h-64.4v-32.2h64.4
		V325.3z M389.7,260.9h-64.4v-32.2h64.4V260.9z M389.7,196.5h-64.4v-32.2h64.4V196.5z M389.7,132h-64.4V99.9h64.4V132z M389.7,132"
		/>
	<path id="XMLID_1379_" class="st0" d="M3.3,49.8v325.5l241.5,46.6V3.3L3.3,49.8z M156,294.4L128,241.3c-1.1-2-2.2-5.6-3.3-10.9
		h-0.5c-0.6,2.5-1.7,6.3-3.8,11.4l-28.1,52.7H48.5l52-81.5l-47.6-81.6h44.7l23.3,48.9c1.8,3.8,3.5,8.5,5,13.8h0.4
		c0.9-3.2,2.7-8,5.1-14.2l25.9-48.4h41l-48.9,80.9l50.2,82.2H156z M156,294.4"/>
</g>
</svg>
