<?xml version="1.0" encoding="utf-8"?>
<!-- Generator: Adobe Illustrator 19.0.0, SVG Export Plug-In . SVG Version: 6.00 Build 0)  -->
<svg version="1.1" id="Capa_1" xmlns="http://www.w3.org/2000/svg" xmlns:xlink="http://www.w3.org/1999/xlink" x="0px" y="0px"
	 viewBox="0 0 425.2 425.2" style="enable-background:new 0 0 425.2 425.2;" xml:space="preserve">
<style type="text/css">
	.st0{fill:#FAEE79;}
	.st1{fill:#010202;}
	.st2{fill:#1A90AF;}
	.st3{fill:#3C3C3B;}
	.st4{clip-path:url(#XMLID_2_);}
	.st5{fill:#878787;}
	.st6{fill:#8C1912;}
	.st7{clip-path:url(#XMLID_3_);}
	.st8{fill:#F9ED6C;}
	.st9{clip-path:url(#XMLID_4_);}
</style>
<g id="XMLID_1036_">
	<g id="XMLID_1968_">
		<g id="XMLID_1969_">
			<g id="XMLID_8031_">
				<path id="XMLID_8032_" class="st0" d="M162.2,300.9c13.8,0,84.7-2.8,107-3.4c16.9-0.4,28.3-0.7,28.3-0.7s2.1,3.4,5.7,4.1
					c3.6,0.6,15.6,1.3,20.5,1.3c2.8,0,18.7-0.6,31.6-1.2c23.4-11.1,39-31.3,59.9-47.4c1.4-1,2.8-2.2,4.1-3.4
					c0.4-1.5,0.8-3.1,1.1-4.7c2.3-12.5,2.5-25.1,2.4-32.4c0.1-7.3,0-20.6-2.4-33.1c-0.3-1.6-0.7-3.2-1-4.7c-1.3-1.2-2.7-2.4-4.1-3.4
					c-20.9-16.1-36.5-36.3-59.9-47.4c-13-0.6-28.8-1.2-31.6-1.2c-5,0-16.9,0.7-20.5,1.3c-3.5,0.7-5.7,4.1-5.7,4.1
					s-11.3-0.3-28.3-0.7c-22.3-0.6-93.2-3.4-107-3.4c-9.2,0-25.6,4.1-25.6,4.1l-23.3-5.4L55.4,124c0,0-14.1,4.7-27.5,13.5
					C14.4,146.3,10.6,161,7,174c-3.2,11.9-4.6,30.2-4.6,39v0.1v0.1c0,8.8,1.3,26.5,4.6,38.3c3.5,13,7.4,27.7,20.9,36.5
					c13.4,8.8,27.5,13.5,27.5,13.5l57.9,0.7l23.3-5.4C136.5,296.8,153,300.9,162.2,300.9 M2.5,213.1L2.5,213.1
					C2.5,213.3,2.5,213.2,2.5,213.1"/>
			</g>
			<g id="XMLID_8028_">
				<path id="XMLID_8029_" class="st1" d="M2.6,213.1L2.6,213.1L2.6,213.1v0.3c0,8.4,1.3,26,4.6,38.1l0.1,0.5
					c3.5,12.8,7.5,27.3,20.6,35.9c13,8.5,26.8,13.2,27.5,13.4l57.8,0.7l23.3-5.4h0.1c0.1,0,16.5,4.1,25.6,4.1
					c8.3,0.1,37.7-1,63.8-1.9c17.6-0.6,34.4-1.2,43.3-1.4c16.8-0.4,28.2-0.7,28.2-0.7h0.2l0.1,0.1c0,0,2.1,3.3,5.6,4
					c3.5,0.7,15.5,1.3,20.4,1.3c3.1,0,21.1-0.8,31.6-1.2c15-7.2,26.7-17.9,39-29.2c6.6-6.1,13.4-12.4,20.9-18.2
					c1.5-1.1,3-2.4,4.1-3.3c0.4-1.6,0.8-3.1,1-4.7c2-10.6,2.4-21.4,2.4-28.6c0-1.2,0-2.5,0-3.7c0-1.2,0-2.5,0-3.8
					c0-7.5-0.4-18.7-2.4-29.3c-0.3-1.6-0.6-3.1-1-4.7c-1.2-1-2.6-2.3-4.1-3.3c-7.4-5.7-14.3-12-20.9-18.1
					c-12.3-11.3-23.9-22.1-39-29.2c-12.8-0.5-28.8-1.3-31.6-1.3c-4.9,0-16.9,0.7-20.4,1.4c-3.4,0.7-5.6,4-5.6,4l-0.1,0.1h-0.1
					c0,0-11.5-0.3-28.3-0.8c-9-0.2-25.8-0.8-43.6-1.4c-25.9-0.9-55.2-1.9-63.4-1.9c-9,0-25.4,4.1-25.4,4.1l-0.2,0.1v0l-23.3-5.4
					l-57.8,0.7c-0.7,0.2-14.5,5-27.5,13.5c-13.2,8.6-17.1,23.1-20.6,35.9l-0.1,0.5C4,185.6,2.6,203.8,2.6,213.1L2.6,213.1L2.6,213.1
					z"/>
			</g>
			<g id="XMLID_7980_">
				<path id="XMLID_7981_" class="st2" d="M162.2,300.9c13.8,0,84.7-2.8,107-3.4c16.9-0.4,28.3-0.7,28.3-0.7s2.1,3.4,5.7,4.1
					c3.6,0.6,15.6,1.3,20.5,1.3c2.8,0,18.7-0.6,31.6-1.2c23.4-11.1,39-31.3,59.9-47.4c1.4-1,2.8-2.2,4.1-3.4
					c0.4-1.5,0.8-3.1,1.1-4.7c2.3-12.5,2.5-25.1,2.4-32.4c0.1-7.3,0-20.6-2.4-33.1c-0.3-1.6-0.7-3.2-1-4.7c-1.3-1.2-2.7-2.4-4.1-3.4
					c-20.9-16.1-36.5-36.3-59.9-47.4c-13-0.6-28.8-1.2-31.6-1.2c-5,0-16.9,0.7-20.5,1.3c-3.5,0.7-5.7,4.1-5.7,4.1
					s-11.3-0.3-28.3-0.7c-22.3-0.6-93.2-3.4-107-3.4c-9.2,0-25.6,4.1-25.6,4.1l-23.3-5.4L55.4,124c0,0-14.1,4.7-27.5,13.5
					C14.4,146.3,10.6,161,7,174c-3.2,11.9-4.6,30.2-4.6,39v0.1v0.1c0,8.8,1.3,26.5,4.6,38.3c3.5,13,7.4,27.7,20.9,36.5
					c13.4,8.8,27.5,13.5,27.5,13.5l57.9,0.7l23.3-5.4C136.5,296.8,153,300.9,162.2,300.9 M2.5,213.1L2.5,213.1
					C2.5,213.3,2.5,213.2,2.5,213.1"/>
			</g>
			<g id="XMLID_7977_">
				<path id="XMLID_7978_" class="st3" d="M158.4,138.7l-0.7,12l10.6,0.3l4.2-13.7C168,137.7,159.7,138.5,158.4,138.7z"/>
			</g>
			<g id="XMLID_4232_">
				<path id="XMLID_4233_" class="st2" d="M160.6,128.4c31.6-1.3,63.2,1.2,94.6-0.8c-28.2-0.9-76.7-2.8-91.2-2.9"/>
			</g>
			<g id="XMLID_4219_">
				<defs>
					<path id="XMLID_4223_" d="M404.9,147c-1.2-1.4-2.6-2.8-4.2-4.1c-9.3-6.2-18.7-10.9-29.7-10.1c-0.2,0.2-0.3,0.5-0.4,0.8
						c15.7,11.3,28.6,26,44.6,38.3c1.4,1,2.8,2.2,4.1,3.4C415.5,159.7,408.9,151.7,404.9,147"/>
				</defs>
				<clipPath id="XMLID_2_">
					<use xlink:href="#XMLID_4223_"  style="overflow:visible;"/>
				</clipPath>
				<g id="XMLID_4226_" class="st4">
					<polygon id="XMLID_4231_" class="st5" points="348.1,150.5 398.4,108.9 441.7,156.8 391.4,198.4 					"/>
				</g>
			</g>
			<g id="XMLID_4171_">
				<g id="XMLID_4217_">
					<path id="XMLID_4218_" class="st2" d="M400.7,142.8c-10.7-9.5-27.6-17.5-27.6-17.5s-8.1-0.4-17.8-0.8c5.5,2.6,10.5,5.7,15.3,9
						c0-0.3,0.2-0.6,0.4-0.8C382,131.9,391.4,136.7,400.7,142.8"/>
				</g>
				<g id="XMLID_4203_">
					<path id="XMLID_4204_" class="st2" d="M294.6,145.6c0,0,6.7-1.5,11.1-1.5c4.3,0,9.2-0.3,9.2-0.3l0.5-1.5c0,0,2.7-2.6,13.8-3.6
						c9.1-0.8,38.9,0.7,49.5,1.3c-7.2-5.9-14.7-11.2-23.4-15.3c-13-0.6-28.8-1.2-31.6-1.2c-5,0-16.9,0.7-20.5,1.3
						c-3.5,0.7-5.7,4.1-5.7,4.1s-0.3,0-0.9,0c0.6,0.9,1.1,1.9,1.3,2.7c0.3,1.8,0,4.9,0,4.9l5.9,0.3c0,0,3.2,0.5,1.3,1.5
						c-1.9,1-14.1,2.8-14.1,2.8L294.6,145.6z"/>
				</g>
				<g id="XMLID_4172_">
					<path id="XMLID_4180_" class="st3" d="M291.1,140.9c0,0,12.2-1.8,14.1-2.8c1.9-1.1-1.4-1.6-1.4-1.6l-5.9-0.2
						c0,0-117.9,0.5-125.4,1c-1,0-1.9,0.2-2.8,0.2L168,151c7.9,0.2,18.9,0.4,27.2,0.5"/>
					<path id="XMLID_4173_" class="st1" d="M195.2,151.5"/>
				</g>
			</g>
			<g id="XMLID_2799_">
				<g id="XMLID_2810_">
					<path id="XMLID_4150_" class="st2" d="M133,127.9l-19.7-4.6l-51.6,0.6c-3.7,1.4-7.1,3.4-10.3,5.7
						C91,128.7,116.6,128.1,133,127.9"/>
				</g>
				<g id="XMLID_2806_">
					<path id="XMLID_2809_" class="st2" d="M61.7,123.9l-6.3,0.1c0,0-6.1,2-14,5.9c3.4-0.1,6.7-0.2,10-0.3
						C54.6,127.3,58,125.3,61.7,123.9"/>
				</g>
				<g id="XMLID_2803_">
					<path id="XMLID_2805_" class="st2" d="M162.2,124.6c-6.4,0-16.2,2-21.6,3.2c14-0.1,19,0,20.5,0.2l3.9-3.3
						C163.8,124.6,162.9,124.6,162.2,124.6"/>
				</g>
				<g id="XMLID_2800_">
					<path id="XMLID_2802_" class="st3" d="M158.9,138.6c-14.1-0.2-14.1-0.3-26.2,1.3c-11.9,1.5-44.3,9.5-44.3,9.5l69.7,1.3
						L158.9,138.6z"/>
				</g>
			</g>
			<g id="XMLID_2443_">
				<g id="XMLID_2711_">
					<path id="XMLID_2712_" class="st6" d="M57.3,133c0,0,3.1,2.3,2.3,3.4c-0.6,1.1-4.4,2.5-9.6,5.6c-5.2,3.1-29.1,19.8-29.1,19.8
						s3.7-11.9,8.7-17.6c4.9-5.6,13.2-9.2,18.8-9.9C54,133.7,57.3,133,57.3,133"/>
				</g>
				<g id="XMLID_2516_">
					<path id="XMLID_2517_" class="st3" d="M294.7,278.8c9.5,0.4,18.3-3.4,26.6-7c3.4-5.8,7.5-13.6,9.9-21.3
						c4.9-15.6,3.8-37.3,3.8-37.3s1-22.4-3.8-38c-2.4-7.7-6.5-15.5-9.8-21.4c-8.4-3.6-17.2-7.4-26.7-7c0-0.4-0.1-0.8-0.1-1.1
						l-54.9,9.6c0,0,3.1,20.9,3.4,34.5c0.3,13.6,0,23.4,0,23.4s0.4,9.1,0,22.7c-0.3,13.6-3.4,34.5-3.4,34.5l54.9,9.6
						C294.6,279.6,294.7,279.2,294.7,278.8"/>
				</g>
				<g id="XMLID_2490_">
					<path id="XMLID_2492_" class="st1" d="M269,113.6"/>
				</g>
				<g id="XMLID_2468_">
					<path id="XMLID_2479_" class="st2" d="M271.6,143.2l19.5-2.3l-3.9-10.3c0,0-2.4-9.5-7.4-13.2c-2.8-2.1-5.9-3-8.1-3.5L279,133
						l0.8,0l0,3.3h-8.4L271.6,143.2z"/>
				</g>
				<g id="XMLID_2464_">
					<path id="XMLID_2467_" class="st3" d="M170.3,288.1c-6.2-0.5-16.2-1.2-16.2-1.2l4-12.1c0,0,5.1-0.1,10.9-0.2L170.3,288.1z"/>
				</g>
				<g id="XMLID_2450_">
					<path id="XMLID_2455_" class="st2" d="M160.6,297.2c31.6,1.3,63.2-1.2,94.6,0.8c-28.2,0.9-76.7,2.8-91.2,2.9"/>
				</g>
			</g>
			<g id="XMLID_2323_">
				<defs>
					<path id="XMLID_2351_" d="M415.2,253.6c-16,12.3-28.9,27.1-44.6,38.3c0.1,0.3,0.1,0.6,0.4,0.9c11.1,0.8,20.4-3.9,29.7-10.1
						c1.5-1.3,3-2.7,4.2-4.1c4-4.8,10.6-12.6,14.5-28.3C418,251.4,416.6,252.6,415.2,253.6"/>
				</defs>
				<clipPath id="XMLID_3_">
					<use xlink:href="#XMLID_2351_"  style="overflow:visible;"/>
				</clipPath>
				<g id="XMLID_2363_" class="st7">
					<polygon id="XMLID_2365_" class="st5" points="348.1,275 398.4,316.7 441.7,268.8 391.4,227.1 					"/>
				</g>
			</g>
			<g id="XMLID_2199_">
				<g id="XMLID_2316_">
					<path id="XMLID_2320_" class="st2" d="M400.7,282.7c-10.7,9.5-27.6,17.5-27.6,17.5s-8.1,0.4-17.8,0.8
						c5.5-2.6,10.5-5.6,15.3-9.1c0.1,0.3,0.1,0.6,0.4,0.9C382,293.6,391.4,288.9,400.7,282.7"/>
				</g>
				<g id="XMLID_2297_">
					<path id="XMLID_2309_" class="st2" d="M294.6,279.9c0,0,6.7,1.6,11.1,1.6c4.3,0,9.2,0.2,9.2,0.2l0.5,1.5c0,0,2.7,2.6,13.8,3.6
						c9.1,0.9,38.9-0.7,49.5-1.3c-7.2,5.9-14.7,11.2-23.4,15.3c-12.9,0.6-28.8,1.2-31.6,1.2c-5,0-17-0.7-20.5-1.3
						c-3.5-0.7-5.7-4.1-5.7-4.1s-0.3,0-0.9,0.1c0.6-0.9,1.1-1.9,1.3-2.7c0.3-1.8,0-4.9,0-4.9l5.9-0.3c0,0,3.2-0.5,1.3-1.5
						c-1.9-1-14.1-2.9-14.1-2.9L294.6,279.9z"/>
				</g>
				<g id="XMLID_2202_">
					<path id="XMLID_2296_" class="st3" d="M195.2,274c14.3-0.3,32.7,0.5,40.6,1.3c7.9,0.8,55.4,9.3,55.4,9.3s12.2,1.8,14.1,2.9
						c1.9,1-1.3,1.5-1.3,1.5l-5.9,0.3c0,0-117.9-0.5-125.4-1c-1-0.1-1.9-0.1-2.8-0.2l-1.6-13.5C175.9,274.4,186.9,274.1,195.2,274"
						/>
				</g>
			</g>
			<g id="XMLID_2129_">
				<g id="XMLID_2193_">
					<path id="XMLID_2196_" class="st2" d="M133,297.6l-19.7,4.6l-51.6-0.6c-3.7-1.4-7.1-3.4-10.3-5.7
						C91,296.9,116.6,297.4,133,297.6"/>
				</g>
				<g id="XMLID_2191_">
					<path id="XMLID_2192_" class="st2" d="M61.7,301.6l-6.3-0.1c0,0-6.1-2-14-5.9c3.4,0.1,6.8,0.2,10,0.2
						C54.6,298.2,58,300.2,61.7,301.6"/>
				</g>
				<g id="XMLID_2183_">
					<path id="XMLID_2190_" class="st8" d="M161,297.5"/>
				</g>
				<g id="XMLID_2180_">
					<path id="XMLID_2182_" class="st2" d="M162.2,300.9c-6.4,0-16.2-2-21.7-3.2c14,0.2,19,0,20.4-0.2l3.9,3.3
						C163.8,300.9,162.9,300.9,162.2,300.9"/>
				</g>
				<g id="XMLID_2171_">
					<path id="XMLID_2175_" class="st3" d="M158.9,286.9c0,0-14.3,0.3-26.2-1.3c-11.9-1.6-44.3-9.6-44.3-9.6l69.7-1.3L158.9,286.9z"
						/>
				</g>
			</g>
			<g id="XMLID_2120_">
				<defs>
					<path id="XMLID_2122_" d="M53.8,252.3c-3.4-13-3.9-29.5-3.7-39.1c-0.1-9.6,0.3-26.9,3.7-39.9c5.2-19.4,19.5-22.5,19.5-22.5
						c-1.1,0-27.1,4.1-35.4,9.3c-8.4,5.2-21.6,13.7-23,31.5c-0.8,11.1-1.2,18.2-1.4,21.5c0.2,3.3,0.6,9.7,1.4,20.8
						c1.4,17.8,14.6,26.4,23,31.5c8.4,5.2,34.4,9.3,35.4,9.3C73.3,274.8,59,271.7,53.8,252.3"/>
				</defs>
				<use xlink:href="#XMLID_2122_"  style="overflow:visible;fill:#343434;"/>
				<clipPath id="XMLID_4_">
					<use xlink:href="#XMLID_2122_"  style="overflow:visible;"/>
				</clipPath>
				<g id="XMLID_2126_" class="st9">
					<polygon id="XMLID_2127_" class="st3" points="73.3,150.8 73.3,274.8 13.4,274.8 13.4,150.8 					"/>
				</g>
			</g>
			<g id="XMLID_1994_">
				<g id="XMLID_2118_">
					<path id="XMLID_2119_" class="st6" d="M57.3,292.5c0,0,3.1-2.2,2.4-3.4c-0.7-1.1-4.5-2.5-9.7-5.6c-5.2-3.1-29.2-19.8-29.2-19.8
						s3.8,11.9,8.7,17.6c4.9,5.6,13.2,9.2,18.8,9.9C54,291.8,57.3,292.5,57.3,292.5"/>
				</g>
				<g id="XMLID_1995_">
					<path id="XMLID_2074_" class="st2" d="M44.3,291.4c0,0-6.8-1.6-12-5.6c-5.2-4-8.5-10.6-10.8-15.1c-2.3-4.5-3-8.8-3-8.8
						s-8.7-16.2-9.2-23.4c-0.4-5.4-1.1-19-1.5-25.4c0.4-6.4,1.1-20.6,1.5-26.1c0.4-7.2,9.2-23.4,9.2-23.4s0.7-4.3,3-8.8
						c2.3-4.5,5.7-11,10.8-15.1c5.2-4.1,12-5.6,12-5.6l7.1-4.5l-9.9,0.2c-4.2,2-8.9,4.6-13.6,7.7C14.4,146.3,10.6,161,7,174
						c-3.2,11.9-4.6,30.2-4.6,39v0.1v0.1c0,8.8,1.3,26.5,4.6,38.3c3.5,13,7.4,27.7,20.9,36.5c4.7,3,9.4,5.6,13.6,7.6l9.9,0.2
						L44.3,291.4z M2.5,213.1L2.5,213.1C2.5,213.3,2.5,213.2,2.5,213.1"/>
				</g>
			</g>
			<g id="XMLID_1980_">
				<path id="XMLID_1993_" class="st2" d="M272.4,281.2l18.7,3.4l-3.9,10.3c0,0-2.4,9.4-7.4,13.2c-2.7,2.1-5.9,3-8.1,3.4l7.2-19
					l0.8,0v-3.3h-8.4L272.4,281.2z"/>
			</g>
		</g>
	</g>
</g>
</svg>
