<?xml version="1.0" encoding="utf-8"?>
<!-- Generator: Adobe Illustrator 19.0.0, SVG Export Plug-In . SVG Version: 6.00 Build 0)  -->
<svg version="1.1" id="Capa_1" xmlns="http://www.w3.org/2000/svg" xmlns:xlink="http://www.w3.org/1999/xlink" x="0px" y="0px"
	 viewBox="0 0 425.2 425.2" style="enable-background:new 0 0 425.2 425.2;" xml:space="preserve">
<style type="text/css">
	.st0{fill:#1A90AF;}
	.st1{fill:#3C3C3B;}
	.st2{fill:#878787;}
	.st3{fill:#221E1E;}
	.st4{fill:#8C1912;}
	.st5{fill:#177287;}
</style>
<g id="XMLID_3077_">
	<g id="g10_20_" transform="matrix(1.25,0,0,-1.25,0,750)">
		<g id="XMLID_3167_">
			<path id="path342_20_" class="st0" d="M6.6,472.3c-2.2-9-2.8-25.7-2.8-42.4c0-16.7,0.6-33.4,2.8-42.3c1.7-7,8.1-10.4,17.4-10.1
				h273.6c12.4-0.1,22-0.9,27.4-0.1c2.1,0.4,5.1,6.2,6.9,11.9c3.5,10.6,5.2,25.6,5.2,40.6c0,15-1.6,30-5.2,40.6
				c-1.9,5.7-3,10-4.9,11.1c-6.6,0.5-17.1,0.9-29.5,0.7H24C14.7,482.7,8.3,479.3,6.6,472.3"/>
			<g id="XMLID_3172_">
				<path id="path346_20_" class="st1" d="M263.5,387.2l3-7.1l-25.1,1.3c-1.8,0.1-3.6,0.3-5.3,0.8c-3,0.8-2.7,1.6-3.6,4.8
					c0,0.6,4.5,0.9,5,0.9C246.2,387.9,254.9,388.1,263.5,387.2"/>
				<path id="path348_20_" class="st1" d="M269.3,380l-2.9,6.8c6.6-1,13.4-1.5,19.8-3.2c2-0.7,1.4-1.3,1.4-3.6
					c-0.6-0.6-5-0.6-5.7-0.6L269.3,380"/>
			</g>
			<g id="XMLID_3171_">
				<path id="path350_20_" class="st0" d="M288,379.4c0.8,0,1.5-0.3,2.6-1.4c1.7-1.7,0.8-2.7,0.3-4.8c-0.6-2.2-0.2-1.8-1.6-3.9
					c-0.9-1.3-1.8-1.4-3.4-1.4c-0.8,0-1.6,0.7-1.4,1.4l2.2,8.7C286.7,378.7,287.2,379.4,288,379.4"/>
				<path id="path352_20_" class="st0" d="M288.1,379.4c0.8,0,1.6-0.5,2.4-1.4c0.3-0.3,0.5-0.5,0.6-0.8c1.1,1.7,2,5.1,0.4,5.2
					c-1.3,0.1-1.9-0.1-2.6-0.2C288.3,381.9,287.9,380.4,288.1,379.4"/>
			</g>
			<path id="path360_20_" class="st1" d="M269.6,460.7c1.5-13.1,2.4-26.3,1.8-39.5c-0.2-7.8-1.1-15.7-1.9-23.5
				c-0.3-2.5-0.6-5.1-0.9-7.6c9.2-1.2,18.2-3.9,27.4-4.8c4.2-0.3,9.2-0.3,11.6,3.7c1.5,2.7,2.3,6.9,3,9.9c4.9,21.9,4.6,46-1.4,67.6
				c-0.8,2.9-1.7,5.4-4.5,6.9c-5.1,2.2-12.8,0.5-18-0.5c-5.8-1.3-12-2.6-18-3.3c-0.1-0.6,0.2-1.9,0.3-2.6
				C269.1,465,269.4,462.8,269.6,460.7"/>
			<path id="path364_20_" class="st2" d="M320.6,389.5c-0.6-6.8,1.8-10.9,5.5-4.5c1.2,2.1,3.6,7.9,3.5,18.7
				C326.8,402.3,321,395.1,320.6,389.5"/>
			<path id="path370_20_" class="st1" d="M25.4,467.2c-1.1-0.4-2.2-2.4-2.3-3.5c-0.6-9.6-1.7-19.4-1.7-29.1
				c-0.4-12.8,0.8-25.7,1.6-38.4c0.2-1.1,1.2-3.1,2.3-3.5h4.2c1,2.1,0.4,6.1,0.2,8.3c-0.6,11-1.3,22.3-1,33.3c0,10,0.5,20,1.3,30
				c0,1-0.1,2.1-0.6,3H25.4"/>
			<g id="XMLID_3170_">
				<path id="path372_20_" class="st0" d="M5.4,472.3c1.4,7,6.8,10.4,14.5,10.1H21l0.7-10.7l-13.7,0.7C5.9,462.7,5,446.4,5,430
					c0-16.1,0.8-32.4,3-42.4l13.6,0.7l-0.7-10.7h-1.1c-7.7-0.3-13.1,3.1-14.5,10.1c-1.8,8.9-2.3,25.6-2.3,42.3
					C3.1,443.9,2.6,458.8,5.4,472.3"/>
			</g>
			<g id="XMLID_3169_">
				<path id="path378_20_" class="st1" d="M263.5,472.7l3,7.1l-25.1-1.3c-1.8-0.1-3.6-0.3-5.3-0.8c-3-0.8-2.7-1.6-3.6-4.8
					c0-0.6,4.5-0.9,5-0.9C246.2,471.9,254.9,471.8,263.5,472.7"/>
				<path id="path380_20_" class="st1" d="M269.3,479.9l-2.9-6.8c6.6,1,13.4,1.5,19.8,3.2c2,0.7,1.4,1.3,1.4,3.6
					c-0.6,0.6-5,0.6-5.7,0.6L269.3,479.9"/>
			</g>
			<g id="XMLID_3168_">
				<path id="path382_20_" class="st0" d="M288,480.5c0.8,0,1.5,0.3,2.6,1.4c1.7,1.7,0.8,2.7,0.3,4.8c-0.6,2.2-0.2,1.8-1.6,3.9
					c-0.9,1.3-1.8,1.4-3.4,1.4c-0.8,0-1.6-0.7-1.4-1.4l2.2-8.7C286.8,481.1,287.3,480.5,288,480.5"/>
				<path id="path384_20_" class="st0" d="M288.2,480.5c0.8,0,1.6,0.5,2.4,1.4c0.3,0.3,0.5,0.5,0.6,0.8c1.1-1.7,2-5.1,0.4-5.2
					c-1.3-0.1-2,0.1-2.6,0.2C288.3,477.9,287.9,479.4,288.2,480.5"/>
			</g>
			<path id="path390_20_" class="st2" d="M320.6,470.3c-0.6,6.8,1.8,10.9,5.5,4.5c1.2-2.1,3.6-7.9,3.5-18.7
				C326.8,457.6,321,464.7,320.6,470.3"/>
		</g>
		<g id="XMLID_3157_">
			<path id="path866_20_" class="st3" d="M80.8,388.2l135.4-0.3v0L80.8,388.2"/>
			<path id="path868_20_" class="st3" d="M216.3,387.9c2.2,0,3.8-0.1,5-0.3c1.1-0.2,1.7-0.5,1.7-0.9h0
				C223,387.6,220.6,388,216.3,387.9L216.3,387.9"/>
			<path id="path870_20_" class="st3" d="M223,384.1L223,384.1l0,2.7h0V384.1z"/>
			<path id="path872_20_" class="st3" d="M223,384.1c0-0.6-0.5-1.4-2.5-1.8l0,0C222.5,382.7,223,383.5,223,384.1L223,384.1"/>
			<path id="path874_20_" class="st3" d="M220.5,382.3l-8.4-1.7l0,0L220.5,382.3"/>
			<path id="path900_20_" class="st3" d="M80.8,471.6l135.4,0.3v0L80.8,471.6"/>
			<path id="path902_20_" class="st3" d="M216.3,471.9c4.3,0,6.7,0.3,6.7,1.2h0c0-0.4-0.6-0.7-1.7-0.9
				C220.1,472,218.4,471.9,216.3,471.9L216.3,471.9"/>
			<path id="path904_20_" class="st3" d="M223,473.1L223,473.1l0,2.7h0V473.1z"/>
			<path id="path906_20_" class="st3" d="M223,475.8c0,0.6-0.5,1.4-2.5,1.8l0,0C222.5,477.2,223,476.4,223,475.8L223,475.8"/>
		</g>
		<path id="rect4902_20_" class="st1" d="M41.2,478.8h177.5c2.7,0,4.9-2.2,4.9-4.9v0c0-2.7-2.2-4.9-4.9-4.9H41.2
			c-2.7,0-4.9,2.2-4.9,4.9v0C36.3,476.6,38.5,478.8,41.2,478.8z"/>
		<g id="XMLID_3155_">
			<path id="path386-4-4_20_" class="st0" d="M183.3,475.3l0-2.9c0-2,0.1-3.7,0.3-3.7l1.1,0c0.2,0,0.3,1.6,0.3,3.7l0,2.9
				c0,2-0.1,3.7-0.3,3.7l-1.1,0C183.4,479,183.3,477.4,183.3,475.3"/>
			<path id="path386-4-4-6_20_" class="st0" d="M207.5,475.1l0-2.9c0-2,0.1-3.7,0.3-3.7l1.1,0c0.2,0,0.3,1.6,0.3,3.7l0,2.9
				c0,2-0.1,3.7-0.3,3.7l-1.1,0C207.6,478.8,207.5,477.2,207.5,475.1"/>
			<path id="path386-4-4-4_20_" class="st0" d="M159.7,475.6l0-3c0-2,0.1-3.7,0.3-3.7l1.1,0c0.2,0,0.3,1.6,0.3,3.7l0,3
				c0,2.1-0.1,3.7-0.3,3.7l-1.1,0C159.9,479.3,159.7,477.7,159.7,475.6"/>
			<path id="path386-4-4-4-0_20_" class="st0" d="M135.2,475.6l0-3c0-2,0.1-3.7,0.3-3.7l1.1,0c0.2,0,0.3,1.6,0.3,3.7l0,3
				c0,2.1-0.1,3.7-0.3,3.7l-1.1,0C135.3,479.3,135.2,477.6,135.2,475.6"/>
			<path id="path386-4-4-4-2_20_" class="st0" d="M111.1,475.4l0-3.2c0-2.1,0.1-3.9,0.3-3.9l1.1,0c0.2,0,0.3,1.7,0.3,3.9l0,3.2
				c0,2.2-0.1,3.9-0.3,3.9l-1.1,0C111.2,479.3,111.1,477.6,111.1,475.4"/>
			<path id="path386-4-4-4-2-9_20_" class="st0" d="M87,475.4l0-3.2c0-2.1,0.1-3.9,0.3-3.9l1.1,0c0.2,0,0.3,1.7,0.3,3.9l0,3.2
				c0,2.2-0.1,3.9-0.3,3.9l-1.1,0C87.1,479.3,87,477.6,87,475.4"/>
		</g>
		<path id="rect4902-7_20_" class="st1" d="M40.5,390.2h178.1c2.7,0,4.9-2.2,4.9-4.9v0c0-2.7-2.2-4.9-4.9-4.9H40.5
			c-2.7,0-4.9,2.2-4.9,4.9v0C35.6,388,37.8,390.2,40.5,390.2z"/>
		<g id="XMLID_3142_">
			<path id="path386-4-4-43_20_" class="st0" d="M183.3,386.7l0-2.9c0-2,0.1-3.7,0.3-3.7l1.1,0c0.2,0,0.3,1.6,0.3,3.7l0,2.9
				c0,2-0.1,3.7-0.3,3.7l-1.1,0C183.4,390.4,183.3,388.8,183.3,386.7"/>
			<path id="path386-4-4-6-7_20_" class="st0" d="M207.5,386.5l0-2.9c0-2,0.1-3.7,0.3-3.7l1.1,0c0.2,0,0.3,1.6,0.3,3.7l0,2.9
				c0,2-0.1,3.7-0.3,3.7l-1.1,0C207.6,390.1,207.5,388.5,207.5,386.5"/>
			<path id="path386-4-4-4-5_20_" class="st0" d="M159.7,386.6l0-2.8c0-1.9,0.1-3.5,0.3-3.5l1.1,0c0.2,0,0.3,1.6,0.3,3.5l0,2.8
				c0,2-0.1,3.5-0.3,3.5l-1.1,0C159.9,390.2,159.7,388.6,159.7,386.6"/>
			<path id="path386-4-4-4-0-6_20_" class="st0" d="M135.2,387.2l0-3.1c0-2.1,0.1-3.9,0.3-3.9l1.1,0c0.2,0,0.3,1.7,0.3,3.9l0,3.1
				c0,2.2-0.1,3.9-0.3,3.9l-1.1,0C135.3,391.1,135.2,389.3,135.2,387.2"/>
			<path id="path386-4-4-4-2-8_20_" class="st0" d="M111.1,386.6l0-3.1c0-2.1,0.1-3.9,0.3-3.9l1.1,0c0.2,0,0.3,1.7,0.3,3.9l0,3.1
				c0,2.2-0.1,3.9-0.3,3.9l-1.1,0C111.2,390.5,111.1,388.7,111.1,386.6"/>
			<path id="path386-4-4-4-2-9-1_20_" class="st0" d="M87,386.6l0-3.1c0-2.1,0.1-3.9,0.3-3.9l1.1,0c0.2,0,0.3,1.7,0.3,3.9l0,3.1
				c0,2.2-0.1,3.9-0.3,3.9l-1.1,0C87.1,390.5,87,388.7,87,386.6"/>
		</g>
	</g>
	<path id="XMLID_3137_" class="st4" d="M23.3,148.3l0.6,9.9l-13.9-0.6C10.1,157.6,10.9,149.2,23.3,148.3z"/>
	<path id="XMLID_3136_" class="st4" d="M23.7,277.2l0.6-9.9l-13.9,0.6C10.4,267.9,11.3,276.3,23.7,277.2z"/>
	<path id="XMLID_3135_" class="st5" d="M162.4,233v-38.1c0-3,2.5-5.5,5.5-5.5l85.9-4.5c3,0,5.5,2.5,5.5,5.5v47.9
		c0,3-2.5,5.5-5.5,5.5l-85.9-5.3C164.9,238.5,162.4,236,162.4,233z"/>
	<path id="XMLID_3093_" class="st5" d="M52.1,227.2v-26.3c0-2.1,1.7-3.8,3.8-3.8l59.3-3.1c2.1,0,3.8,1.7,3.8,3.8v33.1
		c0,2.1-1.7,3.8-3.8,3.8L55.9,231C53.8,231,52.1,229.3,52.1,227.2z"/>
</g>
</svg>
