<?xml version="1.0" encoding="utf-8"?>
<!-- Generator: Adobe Illustrator 19.0.0, SVG Export Plug-In . SVG Version: 6.00 Build 0)  -->
<svg version="1.1" id="Capa_1" xmlns="http://www.w3.org/2000/svg" xmlns:xlink="http://www.w3.org/1999/xlink" x="0px" y="0px"
	 viewBox="0 0 425.2 425.2" style="enable-background:new 0 0 425.2 425.2;" xml:space="preserve">
<style type="text/css">
	.st0{fill:#1A90AF;}
	.st1{fill:#2A4D9C;}
	.st2{fill:#3C3C3B;}
	.st3{fill:#177287;}
	.st4{fill:#878787;}
	.st5{fill:#8C1912;}
	.st6{fill:#16616D;}
</style>
<g id="XMLID_3288_">
	<path id="XMLID_3307_" class="st0" d="M114.1,299.9c68.1,0.5,153.1,1.1,178.3,1.3l-4.4,15.7c0,0,4.2-0.3,7.5-6.6
		c1.4-2.7,2.3-5.3,2.8-7.5c1.8,1.7,4.2,2.8,6.8,2.8h43.5c4.3,0,7.9-2.7,9.3-6.5c12.2-1,22.4-2.5,25.9-4.7
		c10.5-6.6,18.1-16.3,18.1-16.3s-18.7,16.9-6.6,0c12-16.9,11.7-16.6,13.9-18.7c2.1-2.1,6.6-2.7,6.6-2.7s6.1-15.7,6.6-42.6h0
		c0-0.6,0-1.3,0-1.9c0-0.6,0-1.2,0-1.9h0c-0.5-26.9-6.6-42.6-6.6-42.6s-4.5-0.6-6.6-2.7c-2.1-2.1-1.8-1.8-13.9-18.7
		c-12-16.9,6.6,0,6.6,0s-7.5-9.6-18.1-16.3c-3.5-2.2-13.7-3.7-25.8-4.7c-1.3-3.9-5-6.7-9.3-6.7h-43.5c-2.7,0-5.2,1.1-7,3
		c-0.5-2-1.4-4.3-2.6-6.6c-3.3-6.3-7.5-6.6-7.5-6.6l4.1,14.8c-25.5,0.2-110.3,0.8-178.2,1.3c-0.7-2-2.6-3.4-4.8-3.4H43.2
		c-2.5,0-4.5,1.7-5,4.1c-8,0.1-13.4,0.1-15.5,0.2C5.3,125.5,6.5,129.7,5,146.6c-1.3,14.1-1.9,51.7-2.1,63.7H2.8c0,0,0,0.7,0,1.9
		c0,1.2,0,1.9,0,1.9h0.1c0.2,12,0.8,49.6,2.1,63.7c1.5,16.9,0.3,21.1,17.8,21.4c2.1,0,7.5,0.1,15.4,0.2c0.3,2.5,2.5,4.5,5.1,4.5
		h65.9C111.5,303.8,113.6,302.1,114.1,299.9z"/>
	<g id="XMLID_3303_">
		<g id="XMLID_3304_">
			<path id="XMLID_3305_" class="st1" d="M413.1,116.8C413.1,116.8,413.1,116.7,413.1,116.8C413.1,116.8,413.1,116.8,413.1,116.8"/>
		</g>
	</g>
	<path id="XMLID_3302_" class="st2" d="M314.2,139.6L251,151.1c0,0,10.2,16.1,10.2,61.1c0,44.9-10.2,61.2-10.2,61.2l63.2,12
		c0,0,16-24.5,16-73.2S314.2,139.6,314.2,139.6z"/>
	<path id="XMLID_3301_" class="st2" d="M309.1,135.4l-62,11.7c0,0-55.1,2.1-61.1,2.1c-8.7,0-16.6-13.9-16.6-13.9H309.1z"/>
	<path id="XMLID_3300_" class="st2" d="M309.1,290.6l-62-11.7c0,0-55.1-2.1-61.1-2.1c-8.7,0-16.6,13.9-16.6,13.9H309.1z"/>
	<path id="XMLID_3299_" class="st2" d="M159.1,149.3l-3.3,19v88.2l3.3,20.3C159.1,276.8,161.6,171,159.1,149.3z"/>
	<path id="XMLID_3298_" class="st3" d="M161.6,135.4c0,0-5.4,11.1-7.2,26.5c-1.8,15.4-2.4,83.1,0,97.9c2.4,14.8,5.9,30.8,5.9,30.8
		l-145.3-1.9c0,0-5.1-36.1-5.1-80.7s4.5-71.1,4.5-71.1L161.6,135.4z"/>
	<path id="XMLID_3297_" class="st4" d="M394.7,138.6c6.6,4.9,10.6,7.6,15.2,16.1c4.6,8.5,6.4,14.5,6.4,14.5s-4.6,0.8-11.3-7.5
		C394.1,148.4,384.4,130.9,394.7,138.6z"/>
	<path id="XMLID_3296_" class="st4" d="M394.7,286c6.6-4.9,10.6-7.6,15.2-16.1c4.6-8.5,6.4-14.5,6.4-14.5s-4.6-0.8-11.3,7.5
		C394.1,276.2,384.4,293.7,394.7,286z"/>
	<path id="XMLID_3295_" class="st5" d="M6.4,143.4l1-8.1c0.2-1.6,1.7-2.7,3.2-2.5l0,0c1.6,0.2,2.7,1.7,2.5,3.2l-1,8.1
		c-0.2,1.6-1.7,2.7-3.2,2.5l0,0C7.3,146.5,6.2,145,6.4,143.4z"/>
	<path id="XMLID_3294_" class="st5" d="M7,281.7l1,8.1c0.2,1.6,1.7,2.7,3.2,2.5h0c1.6-0.2,2.7-1.7,2.5-3.2l-1-8.1
		c-0.2-1.6-1.7-2.7-3.2-2.5l0,0C8,278.6,6.9,280.1,7,281.7z"/>
	<path id="XMLID_3293_" class="st6" d="M21.6,158.5L21.6,158.5c0-2.9,2.4-5.3,5.3-5.3h110.6c2.9,0,5.3,2.4,5.3,5.3l0,0
		c0,2.9-2.4,5.3-5.3,5.3H26.9C24,163.8,21.6,161.4,21.6,158.5z"/>
	<path id="XMLID_3292_" class="st6" d="M21.6,185.6L21.6,185.6c0-2.9,2.4-5.3,5.3-5.3h110.6c2.9,0,5.3,2.4,5.3,5.3l0,0
		c0,2.9-2.4,5.3-5.3,5.3H26.9C24,190.8,21.6,188.4,21.6,185.6z"/>
	<path id="XMLID_3291_" class="st6" d="M21.6,212.6L21.6,212.6c0-2.9,2.4-5.3,5.3-5.3h110.6c2.9,0,5.3,2.4,5.3,5.3l0,0
		c0,2.9-2.4,5.3-5.3,5.3H26.9C24,217.9,21.6,215.5,21.6,212.6z"/>
	<path id="XMLID_3290_" class="st6" d="M21.6,239.6L21.6,239.6c0-2.9,2.4-5.3,5.3-5.3h110.6c2.9,0,5.3,2.4,5.3,5.3l0,0
		c0,2.9-2.4,5.3-5.3,5.3H26.9C24,244.9,21.6,242.5,21.6,239.6z"/>
	<path id="XMLID_3289_" class="st6" d="M21.6,266.7L21.6,266.7c0-2.9,2.4-5.3,5.3-5.3h110.6c2.9,0,5.3,2.4,5.3,5.3l0,0
		c0,2.9-2.4,5.3-5.3,5.3H26.9C24,272,21.6,269.6,21.6,266.7z"/>
</g>
</svg>
