<?xml version="1.0" encoding="utf-8"?>
<!-- Generator: Adobe Illustrator 19.0.0, SVG Export Plug-In . SVG Version: 6.00 Build 0)  -->
<svg version="1.1" id="Capa_1" xmlns="http://www.w3.org/2000/svg" xmlns:xlink="http://www.w3.org/1999/xlink" x="0px" y="0px"
	 viewBox="0 0 425.2 425.2" style="enable-background:new 0 0 425.2 425.2;" xml:space="preserve">
<style type="text/css">
	.st0{fill:#1A90AF;}
	.st1{fill:#FFFFFF;}
	.st2{fill:#878787;}
	.st3{fill:#DADADA;}
</style>
<rect id="XMLID_1363_" x="-15.5" y="-103.9" class="st0" width="390.1" height="78.2"/>
<rect id="XMLID_22_" x="-47.3" y="-75" style="fill:none;" width="468" height="43.6"/>
<text id="XMLID_1190_" transform="matrix(1 0 0 1 54.0449 -53.7075)" class="st1" style="font-family:'MyriadPro-Regular'; font-size:30px;">Reporte de Recorrido</text>
<path id="XMLID_1375_" class="st0" d="M217.4,506.3h-89c-2.9,0-5.2-2.3-5.2-5.2v-19c0-2.9,2.3-5.2,5.2-5.2h89c2.9,0,5.2,2.3,5.2,5.2
	v19C222.6,504,220.3,506.3,217.4,506.3z"/>
<path id="XMLID_1384_" class="st0" d="M347.3,506.3h-89c-2.9,0-5.2-2.3-5.2-5.2v-19c0-2.9,2.3-5.2,5.2-5.2h89c2.9,0,5.2,2.3,5.2,5.2
	v19C352.5,504,350.2,506.3,347.3,506.3z"/>
<text id="XMLID_1386_" transform="matrix(1 0 0 1 145.6631 496.7603)" class="st1" style="font-family:'MyriadPro-Regular'; font-size:12px;">CANCELAR</text>
<text id="XMLID_2032_" transform="matrix(1 0 0 1 280.749 496.7603)" class="st1" style="font-family:'MyriadPro-Regular'; font-size:12px;">ACEPTAR</text>
<g id="XMLID_1354_">
	<path id="XMLID_4871_" class="st2" d="M339.7,43.3h-83.3v-38H143.2v38H59.9v60h279.8V43.3z M173.2,35.3h53.2v8h-53.2V35.3z
		 M173.2,35.3"/>
	<path id="XMLID_4864_" class="st2" d="M284.8,220.2c-54.8,0-99.4,44.6-99.4,99.4c0,54.8,44.6,99.4,99.4,99.4s99.4-44.6,99.4-99.4
		C384.2,264.8,339.6,220.2,284.8,220.2L284.8,220.2z M338.9,352.5l-21.2,21.2l-32.9-32.9l-32.9,32.9l-21.2-21.2l32.9-32.9
		l-32.9-32.9l21.2-21.2l32.9,32.9l32.9-32.9l21.2,21.2L306,319.6L338.9,352.5z M338.9,352.5"/>
	<path id="XMLID_3582_" class="st3" d="M168.1,319.6c0-65.7,53.3-119,119-119c9.1,0,17.9,1.2,26.4,3.2l5.3-85.7H80.9l19,292.5h111.4
		C185.1,388.8,168.1,356.3,168.1,319.6z"/>
</g>
</svg>
