<?xml version="1.0" encoding="utf-8"?>
<!-- Generator: Adobe Illustrator 19.0.0, SVG Export Plug-In . SVG Version: 6.00 Build 0)  -->
<svg version="1.1" id="Capa_1" xmlns="http://www.w3.org/2000/svg" xmlns:xlink="http://www.w3.org/1999/xlink" x="0px" y="0px"
	 viewBox="0 0 425.2 425.2" style="enable-background:new 0 0 425.2 425.2;" xml:space="preserve">
<style type="text/css">
	.st0{fill:#1A90AF;}
	.st1{fill:#FFFFFF;}
	.st2{fill:#B6DFE5;}
</style>
<g id="XMLID_1733_">
	<circle id="XMLID_950_" class="st0" cx="212.6" cy="212.6" r="208.4"/>
	<g id="XMLID_951_">
		<g id="XMLID_1009_">
			<path id="XMLID_1010_" class="st1" d="M215.8,87.6c-40.4,0-73.1,32.5-73.1,72.6c0,20.5,20.1,57.2,20.1,57.2l50.2,85.2l52.4-84.3
				c0,0,23.3-35,23.3-58.2C288.8,120.1,256.1,87.6,215.8,87.6L215.8,87.6z M215.4,200.2c-23.1,0-41.8-18.7-41.8-41.9
				c0-23.1,18.7-41.8,41.8-41.8c23.1,0,41.8,18.7,41.8,41.8C257.2,181.4,238.5,200.2,215.4,200.2L215.4,200.2z M215.4,200.2"/>
		</g>
		<ellipse id="XMLID_1008_" class="st2" cx="212.6" cy="325.5" rx="95.2" ry="12.1"/>
		<circle id="XMLID_1007_" class="st2" cx="215.4" cy="158.3" r="23.8"/>
	</g>
</g>
</svg>
