<?xml version="1.0" encoding="utf-8"?>
<!-- Generator: Adobe Illustrator 19.0.0, SVG Export Plug-In . SVG Version: 6.00 Build 0)  -->
<svg version="1.1" id="Capa_1" xmlns="http://www.w3.org/2000/svg" xmlns:xlink="http://www.w3.org/1999/xlink" x="0px" y="0px"
	 viewBox="0 0 425.2 425.2" style="enable-background:new 0 0 425.2 425.2;" xml:space="preserve">
<style type="text/css">
	.st0{fill:#E7EDED;}
	.st1{fill:#64C5E0;}
</style>
<g id="XMLID_5350_">
	<path id="XMLID_5354_" class="st0" d="M153,326.4L93.2,359c-3.5,1.9-6.7,4.3-9.6,6.8c34.9,29.4,79.9,47.1,129,47.1
		c48.8,0,93.5-17.5,128.3-46.5c-3.2-2.7-6.7-5.1-10.5-7.1l-64-32c-8.3-4.1-13.5-12.6-13.5-21.9v-25.1c1.8-2,3.9-4.7,6.1-7.8
		c8.8-12.3,15.3-25.9,19.9-40.1c8.2-2.5,14.3-10.1,14.3-19.1v-26.8c0-5.9-2.6-11.2-6.7-14.9V133c0,0,8-60.3-73.7-60.3
		c-81.7,0-73.7,60.3-73.7,60.3v38.8c-4.1,3.7-6.7,9-6.7,14.9v26.8c0,7.1,3.7,13.3,9.3,16.9c6.7,29.2,24.3,50.2,24.3,50.2V305
		C165.7,313.9,160.8,322.2,153,326.4L153,326.4z M153,326.4"/>
	<path id="XMLID_5351_" class="st1" d="M216,12.2C105.4,10.3,14.1,98.5,12.2,209.2c-1.1,62.8,26.9,119.2,71.4,156.6
		c2.9-2.5,6-4.8,9.5-6.8l59.8-32.6c7.8-4.3,12.7-12.5,12.7-21.5v-24.5c0,0-17.5-21-24.2-50.2c-5.6-3.6-9.3-9.8-9.3-16.8v-26.8
		c0-5.9,2.6-11.2,6.7-14.8V133c0,0-7.9-60.3,73.7-60.3c81.7,0,73.7,60.3,73.7,60.3v38.8c4.1,3.7,6.7,9,6.7,14.8v26.8
		c0,9-6.1,16.6-14.3,19.1c-4.6,14.2-11.2,27.8-19.9,40.1c-2.2,3.1-4.2,5.7-6.1,7.8v25.1c0,9.3,5.2,17.7,13.5,21.9l64.1,32
		c3.8,1.9,7.3,4.3,10.5,7c43.2-36,71.1-89.8,72.1-150.5C414.9,105.4,326.7,14.1,216,12.2L216,12.2z M216,12.2"/>
</g>
</svg>
