<?xml version="1.0" encoding="utf-8"?>
<!-- Generator: Adobe Illustrator 19.0.0, SVG Export Plug-In . SVG Version: 6.00 Build 0)  -->
<svg version="1.1" id="Capa_1" xmlns="http://www.w3.org/2000/svg" xmlns:xlink="http://www.w3.org/1999/xlink" x="0px" y="0px"
	 viewBox="0 0 425.2 425.2" style="enable-background:new 0 0 425.2 425.2;" xml:space="preserve">
<style type="text/css">
	.st0{fill:#E2584D;}
	.st1{fill:#B5362A;}
	.st2{fill:#FFFFFF;}
</style>
<g id="XMLID_1356_">
	<path id="XMLID_3343_" class="st0" d="M55.6,3.3h222.3l117.8,117.4v275.1c0,14.5-11.7,26.2-26.2,26.2h-314
		c-14.4,0-26.2-11.7-26.2-26.2V29.4C29.4,15,41.2,3.3,55.6,3.3L55.6,3.3z M55.6,3.3"/>
	<path id="XMLID_2424_" class="st1" d="M395.4,121h-91.2c-14.4,0-26.2-11.7-26.2-26.2V3.5L395.4,121z M395.4,121"/>
	<path id="XMLID_1358_" class="st2" d="M297.6,201.6c4.4,0,6.5-3.8,6.5-7.5c0-3.8-2.2-7.5-6.5-7.5h-25c-4.9,0-7.6,4-7.6,8.5v61.3
		c0,5.5,3.1,8.5,7.3,8.5c4.2,0,7.3-3,7.3-8.5v-16.8h15.1c4.7,0,7-3.8,7-7.6c0-3.7-2.3-7.4-7-7.4h-15.1v-22.9H297.6z M213.2,186.6
		H195c-5,0-8.5,3.4-8.5,8.5v61.4c0,6.3,5.1,8.2,8.7,8.2h19.2c22.7,0,37.7-14.9,37.7-38C252,202.4,237.9,186.6,213.2,186.6
		L213.2,186.6z M214.1,249.6H203v-47.8h10c15.2,0,21.8,10.2,21.8,24.3C234.8,239.2,228.3,249.6,214.1,249.6L214.1,249.6z
		 M147.2,186.6h-18.1c-5.1,0-8,3.4-8,8.5v61.3c0,5.5,3.3,8.5,7.7,8.5c4.4,0,7.7-3,7.7-8.5v-17.9h11.3c14,0,25.5-9.9,25.5-25.9
		C173.4,197.1,162.2,186.6,147.2,186.6L147.2,186.6z M146.9,224.1h-10.4V201h10.4c6.4,0,10.5,5,10.5,11.6
		C157.4,219.1,153.3,224.1,146.9,224.1L146.9,224.1z M146.9,224.1"/>
</g>
</svg>
