<?xml version="1.0" encoding="utf-8"?>
<!-- Generator: Adobe Illustrator 19.0.0, SVG Export Plug-In . SVG Version: 6.00 Build 0)  -->
<svg version="1.1" id="Capa_1" xmlns="http://www.w3.org/2000/svg" xmlns:xlink="http://www.w3.org/1999/xlink" x="0px" y="0px"
	 viewBox="0 0 425.2 425.2" style="enable-background:new 0 0 425.2 425.2;" xml:space="preserve">
<style type="text/css">
	.st0{fill:#1A90AF;}
	.st1{fill:#B6DFE5;}
	.st2{fill:#FFFFFF;}
</style>
<g id="XMLID_1732_">
	<g id="XMLID_128_">
		<circle id="XMLID_949_" class="st0" cx="212.6" cy="212.6" r="208.4"/>
	</g>
	<g id="XMLID_952_">
		<path id="XMLID_970_" class="st1" d="M386.2,212.6l-61.5-45.7v26.4h-19.9v38.6h19.9v26.4L386.2,212.6z M386.2,212.6"/>
		<path id="XMLID_964_" class="st1" d="M242.7,212.6c0-16.1-13.1-29.2-29.2-29.2c-0.1,0-0.3,0-0.3,0c-0.3,0-0.4,0-0.6,0
			c-16.1,0-29.2,13.1-29.2,29.2s13.1,29.2,29.2,29.2c0.2,0,0.3,0,0.5,0c0,0,0.3,0,0.4,0C229.6,241.8,242.7,228.7,242.7,212.6
			L242.7,212.6z M242.7,212.6"/>
		<path id="XMLID_961_" class="st1" d="M100.5,166.9L39,212.6l61.5,45.7v-26.4h19.9v-38.6h-19.9V166.9z M100.5,166.9"/>
		<path id="XMLID_956_" class="st2" d="M163.8,212.6c0-19.4,12.3-36.5,30.6-42.8l2.5-0.8v-33.4l-4.4,1
			c-17.1,3.7-32.7,13.3-43.8,26.9c-11.3,13.8-17.5,31.3-17.5,49.2s6.2,35.4,17.5,49.2c11.1,13.6,26.7,23.2,43.8,26.9l4.4,1v-33.4
			l-2.5-0.8C176,249.1,163.8,231.9,163.8,212.6L163.8,212.6z M163.8,212.6"/>
		<path id="XMLID_953_" class="st2" d="M232.8,136.5l-4.4-1V169l2.5,0.8c18.3,6.3,30.6,23.5,30.6,42.8c0,19.3-12.3,36.5-30.6,42.8
			l-2.5,0.8v33.4l4.4-1c17.1-3.7,32.7-13.3,43.8-26.9c11.3-13.8,17.5-31.3,17.5-49.2s-6.2-35.4-17.5-49.2
			C265.5,149.8,249.9,140.2,232.8,136.5L232.8,136.5z M232.8,136.5"/>
	</g>
</g>
</svg>
