<?xml version="1.0" encoding="utf-8"?>
<!-- Generator: Adobe Illustrator 19.0.0, SVG Export Plug-In . SVG Version: 6.00 Build 0)  -->
<svg version="1.1" id="Capa_1" xmlns="http://www.w3.org/2000/svg" xmlns:xlink="http://www.w3.org/1999/xlink" x="0px" y="0px"
	 viewBox="0 0 425.2 425.2" style="enable-background:new 0 0 425.2 425.2;" xml:space="preserve">
<style type="text/css">
	.st0{fill:#E30613;}
	.st1{fill:#DADADA;}
</style>
<g id="XMLID_12550_">
	<path id="XMLID_12557_" class="st0" d="M289.7,212.6c0-41.2-33.5-74.7-74.8-74.7c-0.4,0-0.8,0-1.1,0c-0.4,0-0.8,0-1.2,0
		c-41.2,0-74.7,33.5-74.7,74.7s33.5,74.7,74.7,74.7c0.4,0,0.8,0,1.2,0c0.4,0,0.8,0,1.1,0C256.2,287.3,289.7,253.8,289.7,212.6
		L289.7,212.6z M289.7,212.6"/>
	<path id="XMLID_12554_" class="st1" d="M87.6,212.6c0-49.5,31.5-93.5,78.3-109.5l6.3-2.2V15.4l-11.3,2.4
		c-43.8,9.5-83.6,33.9-112.1,68.8C19.9,122.1,4,166.8,4,212.6s15.9,90.5,44.8,125.9c28.5,34.9,68.3,59.4,112.1,68.8l11.3,2.4v-85.5
		l-6.3-2.2C119.1,306.1,87.6,262.1,87.6,212.6L87.6,212.6z M87.6,212.6"/>
	<path id="XMLID_12551_" class="st1" d="M264.3,17.9L253,15.4v85.5l6.3,2.2c46.8,16,78.3,60,78.3,109.5c0,49.5-31.5,93.5-78.3,109.5
		l-6.3,2.2v85.5l11.3-2.4c43.8-9.5,83.6-33.9,112.1-68.8c28.9-35.4,44.8-80.1,44.8-125.9s-15.9-90.5-44.8-125.9
		C347.9,51.8,308.1,27.3,264.3,17.9L264.3,17.9z M264.3,17.9"/>
</g>
</svg>
