<?xml version="1.0" encoding="utf-8"?>
<!-- Generator: Adobe Illustrator 19.0.0, SVG Export Plug-In . SVG Version: 6.00 Build 0)  -->
<svg version="1.1" id="Capa_1" xmlns="http://www.w3.org/2000/svg" xmlns:xlink="http://www.w3.org/1999/xlink" x="0px" y="0px"
	 viewBox="0 0 425.2 425.2" style="enable-background:new 0 0 425.2 425.2;" xml:space="preserve">
<style type="text/css">
	.st0{fill:#DADADA;}
	.st1{fill:#E30613;}
</style>
<g id="XMLID_12737_">
	<rect id="XMLID_12751_" x="56.9" y="313.7" class="st0" width="318.7" height="20.9"/>
	<rect id="XMLID_12750_" x="198.3" y="143" class="st0" width="20.9" height="191.6"/>
	<path id="XMLID_12747_" class="st1" d="M266.4,47.7H158.8c-15.4,0-27.6,12.6-27.6,27.9v107.9c0,15.4,12.6,27.9,27.6,27.9h107.9
		c15.4,0,27.6-12.6,27.6-27.9V75.2C294.3,59.9,281.7,47.7,266.4,47.7L266.4,47.7z M266.4,47.7"/>
	<path id="XMLID_12744_" class="st0" d="M403.5,271.1h-70.2c-10.1,0-18.2,8-18.2,18.2v70.2c0,10.1,8,18.2,18.2,18.2h70.2
		c10.1,0,18.2-8,18.2-18.2v-70.2C421.7,279.1,413.3,271.1,403.5,271.1L403.5,271.1z M403.5,271.1"/>
	<path id="XMLID_12741_" class="st0" d="M247.9,271.1h-70.5c-10.1,0-18.2,8-18.2,18.2v70.2c0,10.1,8,18.2,18.2,18.2h70.2
		c10.1,0,18.2-8,18.2-18.2v-70.2C265.7,279.1,257.6,271.1,247.9,271.1L247.9,271.1z M247.9,271.1"/>
	<path id="XMLID_12738_" class="st0" d="M91.8,271.1H21.7c-10.1,0-18.2,8-18.2,18.2v70.2c0,10.1,8,18.2,18.2,18.2h70.2
		c10.1,0,18.2-8,18.2-18.2v-70.2C110,279.1,102,271.1,91.8,271.1L91.8,271.1z M91.8,271.1"/>
</g>
</svg>
