<?xml version="1.0" encoding="utf-8"?>
<!-- Generator: Adobe Illustrator 19.0.0, SVG Export Plug-In . SVG Version: 6.00 Build 0)  -->
<svg version="1.1" id="Capa_1" xmlns="http://www.w3.org/2000/svg" xmlns:xlink="http://www.w3.org/1999/xlink" x="0px" y="0px"
	 viewBox="0 0 425.2 425.2" style="enable-background:new 0 0 425.2 425.2;" xml:space="preserve">
<style type="text/css">
	.st0{fill:#1A90AF;}
	.st1{fill:#FFFFFF;}
	.st2{fill:#B6DFE5;}
</style>
<g id="XMLID_1519_">
	<circle id="XMLID_37_" class="st0" cx="212.6" cy="212.6" r="208.4"/>
	<g id="XMLID_8353_">
		<g id="XMLID_8354_">
			<path id="XMLID_8424_" class="st1" d="M212.6,111.1c-56,0-101.5,45.4-101.5,101.5c0,56,45.4,101.5,101.5,101.5
				c56,0,101.5-45.4,101.5-101.5C314.1,156.6,268.6,111.1,212.6,111.1z M212.6,267.2c-30.2,0-54.6-24.5-54.6-54.6
				c0-30.2,24.5-54.6,54.6-54.6c30.2,0,54.6,24.5,54.6,54.6C267.2,242.8,242.8,267.2,212.6,267.2z"/>
			<path id="XMLID_8406_" class="st2" d="M87.7,128.7c-3.2,0-5.9-2.6-5.9-5.9V87.7c0-3.2,2.6-5.9,5.9-5.9h35.1
				c3.2,0,5.9,2.6,5.9,5.9c0,3.2-2.6,5.9-5.9,5.9H93.6v29.3C93.6,126.1,91,128.7,87.7,128.7L87.7,128.7z M87.7,128.7"/>
			<path id="XMLID_8403_" class="st2" d="M337.5,128.7c-3.2,0-5.9-2.6-5.9-5.9V93.6h-29.3c-3.2,0-5.9-2.6-5.9-5.9
				c0-3.2,2.6-5.9,5.9-5.9h35.1c3.2,0,5.9,2.6,5.9,5.9v35.1C343.3,126.1,340.7,128.7,337.5,128.7L337.5,128.7z M337.5,128.7"/>
			<path id="XMLID_8365_" class="st2" d="M122.8,343.3H87.7c-3.2,0-5.9-2.6-5.9-5.9v-35.1c0-3.2,2.6-5.9,5.9-5.9
				c3.2,0,5.9,2.6,5.9,5.9v29.3h29.3c3.2,0,5.9,2.6,5.9,5.9C128.7,340.7,126.1,343.3,122.8,343.3L122.8,343.3z M122.8,343.3"/>
			<path id="XMLID_8358_" class="st2" d="M337.5,343.3h-35.1c-3.2,0-5.9-2.6-5.9-5.9c0-3.2,2.6-5.9,5.9-5.9h29.3v-29.3
				c0-3.2,2.6-5.9,5.9-5.9c3.2,0,5.9,2.6,5.9,5.9v35.1C343.3,340.7,340.7,343.3,337.5,343.3L337.5,343.3z M337.5,343.3"/>
			<path id="XMLID_8355_" class="st2" d="M360.9,206.7H218.5V64.3c0-3.2-2.6-5.9-5.9-5.9c-3.2,0-5.9,2.6-5.9,5.9v142.4H64.3
				c-3.2,0-5.9,2.6-5.9,5.9c0,3.2,2.6,5.9,5.9,5.9h142.4v142.4c0,3.2,2.6,5.9,5.9,5.9c3.2,0,5.9-2.6,5.9-5.9V218.5h142.4
				c3.2,0,5.9-2.6,5.9-5.9C366.7,209.4,364.1,206.7,360.9,206.7L360.9,206.7z M360.9,206.7"/>
		</g>
	</g>
</g>
</svg>
