<?xml version="1.0" encoding="utf-8"?>
<!-- Generator: Adobe Illustrator 19.0.0, SVG Export Plug-In . SVG Version: 6.00 Build 0)  -->
<svg version="1.1" id="Capa_1" xmlns="http://www.w3.org/2000/svg" xmlns:xlink="http://www.w3.org/1999/xlink" x="0px" y="0px"
	 viewBox="0 0 425.2 425.2" style="enable-background:new 0 0 425.2 425.2;" xml:space="preserve">
<style type="text/css">
	.st0{fill:#DADADA;}
	.st1{fill:#878787;}
</style>
<g id="XMLID_4579_">
	<g id="XMLID_4580_">
		<g id="XMLID_4581_">
			<path id="XMLID_4597_" class="st0" d="M212.6,76.1c-75.4,0-136.5,61.1-136.5,136.5c0,75.4,61.1,136.5,136.5,136.5
				c75.4,0,136.5-61.1,136.5-136.5C349.1,137.2,288,76.1,212.6,76.1z M212.6,286.1c-40.6,0-73.5-32.9-73.5-73.5
				c0-40.6,32.9-73.5,73.5-73.5c40.6,0,73.5,32.9,73.5,73.5C286.1,253.2,253.2,286.1,212.6,286.1z"/>
			<path id="XMLID_4594_" class="st1" d="M44.6,99.7c-4.4,0-7.9-3.5-7.9-7.9V44.6c0-4.4,3.5-7.9,7.9-7.9h47.2c4.4,0,7.9,3.5,7.9,7.9
				c0,4.3-3.5,7.9-7.9,7.9H52.5v39.4C52.5,96.2,49,99.7,44.6,99.7L44.6,99.7z M44.6,99.7"/>
			<path id="XMLID_4591_" class="st1" d="M380.6,99.7c-4.4,0-7.9-3.5-7.9-7.9V52.5h-39.4c-4.4,0-7.9-3.5-7.9-7.9
				c0-4.4,3.5-7.9,7.9-7.9h47.2c4.3,0,7.9,3.5,7.9,7.9v47.2C388.4,96.2,384.9,99.7,380.6,99.7L380.6,99.7z M380.6,99.7"/>
			<path id="XMLID_4588_" class="st1" d="M91.9,388.5H44.6c-4.4,0-7.9-3.5-7.9-7.9v-47.2c0-4.4,3.5-7.9,7.9-7.9
				c4.3,0,7.9,3.5,7.9,7.9v39.4h39.4c4.4,0,7.9,3.5,7.9,7.9C99.7,384.9,96.2,388.5,91.9,388.5L91.9,388.5z M91.9,388.5"/>
			<path id="XMLID_4585_" class="st1" d="M380.6,388.5h-47.2c-4.3,0-7.9-3.5-7.9-7.9c0-4.3,3.5-7.9,7.9-7.9h39.4v-39.4
				c0-4.4,3.5-7.9,7.9-7.9c4.4,0,7.9,3.5,7.9,7.9v47.2C388.4,384.9,384.9,388.5,380.6,388.5L380.6,388.5z M380.6,388.5"/>
			<path id="XMLID_4582_" class="st1" d="M412.1,204.7H220.5V13.1c0-4.4-3.5-7.9-7.9-7.9c-4.4,0-7.9,3.5-7.9,7.9v191.6H13.1
				c-4.3,0-7.9,3.5-7.9,7.9c0,4.3,3.5,7.9,7.9,7.9h191.6v191.6c0,4.4,3.5,7.9,7.9,7.9c4.3,0,7.9-3.5,7.9-7.9V220.5h191.6
				c4.3,0,7.9-3.5,7.9-7.9C419.9,208.2,416.4,204.7,412.1,204.7L412.1,204.7z M412.1,204.7"/>
		</g>
	</g>
</g>
</svg>
