<?xml version="1.0" encoding="utf-8"?>
<!-- Generator: Adobe Illustrator 19.0.0, SVG Export Plug-In . SVG Version: 6.00 Build 0)  -->
<svg version="1.1" id="Capa_1" xmlns="http://www.w3.org/2000/svg" xmlns:xlink="http://www.w3.org/1999/xlink" x="0px" y="0px"
	 viewBox="0 0 425.2 425.2" style="enable-background:new 0 0 425.2 425.2;" xml:space="preserve">
<style type="text/css">
	.st0{fill:#1A90AF;}
	.st1{fill:#FFFFFF;}
	.st2{fill:#B6DFE5;}
</style>
<g id="XMLID_1133_">
	<circle id="XMLID_1203_" class="st0" cx="212.6" cy="212.6" r="208.4"/>
	<g id="XMLID_1198_">
		<path id="XMLID_1200_" class="st1" d="M348.2,188.8v90.5c0,10.1-8.2,18.2-18.2,18.2h-17.5v29.3l-28.2-29.3H171.1
			c-10.1,0-18.2-8.2-18.2-18.2v-90.5c0-10.1,8.2-18.2,18.2-18.2h158.9C340,170.5,348.2,178.7,348.2,188.8L348.2,188.8z M348.2,188.8
			"/>
		<path id="XMLID_1199_" class="st2" d="M254.2,117.6H95.3c-10.1,0-18.2,8.2-18.2,18.2v90.5c0,10.1,8.2,18.2,18.2,18.2h17.5v29.3
			l26.6-27.7v-70.9c0-10.1,8.2-18.2,18.2-18.2h114.8v-21.3C272.4,125.7,264.2,117.6,254.2,117.6z"/>
	</g>
</g>
</svg>
