<?xml version="1.0" encoding="utf-8"?>
<!-- Generator: Adobe Illustrator 19.0.0, SVG Export Plug-In . SVG Version: 6.00 Build 0)  -->
<svg version="1.1" id="Capa_1" xmlns="http://www.w3.org/2000/svg" xmlns:xlink="http://www.w3.org/1999/xlink" x="0px" y="0px"
	 viewBox="0 0 425.2 425.2" style="enable-background:new 0 0 425.2 425.2;" xml:space="preserve">
<style type="text/css">
	.st0{fill:#878787;}
</style>
<g id="XMLID_3350_">
	<path id="XMLID_3377_" class="st0" d="M212.6,72.8c-93.2,0-173.4,57.8-205.1,139.8c31.7,82,111.9,139.8,205.1,139.8
		c93.2,0,173.3-57.8,205.1-139.8C385.9,130.6,305.8,72.8,212.6,72.8L212.6,72.8z M212.6,305.8c-52.2,0-93.2-41.1-93.2-93.2
		c0-52.1,41-93.2,93.2-93.2c52.1,0,93.2,41.1,93.2,93.2C305.8,264.7,264.7,305.8,212.6,305.8L212.6,305.8z M212.6,156.7
		c-31.7,0-56,24.2-56,55.9c0,31.7,24.3,55.9,56,55.9c31.7,0,55.9-24.2,55.9-55.9C268.5,180.9,244.3,156.7,212.6,156.7L212.6,156.7z
		 M212.6,156.7"/>
</g>
</svg>
