<?xml version="1.0" encoding="utf-8"?>
<!-- Generator: Adobe Illustrator 19.0.0, SVG Export Plug-In . SVG Version: 6.00 Build 0)  -->
<svg version="1.1" id="Capa_1" xmlns="http://www.w3.org/2000/svg" xmlns:xlink="http://www.w3.org/1999/xlink" x="0px" y="0px"
	 viewBox="0 0 425.2 425.2" style="enable-background:new 0 0 425.2 425.2;" xml:space="preserve">
<style type="text/css">
	.st0{fill:#1A90AF;}
	.st1{fill:#878787;}
	.st2{fill:#3C3C3B;}
	.st3{fill:#177287;}
	.st4{fill:#8C1912;}
	.st5{fill:#16616D;}
</style>
<g id="XMLID_3262_">
	<path id="XMLID_3287_" class="st0" d="M373.1,144.9c0,0,17,5.5,26,8.4c3.9,1.3,7.5,3.2,7.5,3.2s-3.6,3.3-1,10.1
		c3.5,8.9,9.9,5.5,9.9,5.5v11.6c0,0,3.7,1.6,3.7,9.6c0,8,0,32.1,0,38.9c0,6.8-3.7,9.9-3.7,9.9v11.1c0,0-3.9-1.9-6.6,0.8
		c-2.6,2.8-4.7,6.3-4.3,10.5c0.4,4.2,1.3,4.4,1.3,4.4s-3.2,1.4-6.7,2.5c-12.5,4.1-26.2,8.6-26.2,8.6s0,1.6,0,4.1s-1.1,4.8-5.4,4.8
		c-4.3,0-12.9,0-12.9,0s-44.9,0-48,0c-3.1,0-5-2.9-5-4.3c0-1.4,0-3.6,0-3.6s-13.4,0-15.6,0c-2.2,0-5.3-1.8-6.5-3.6
		c-1.2-1.8-1.6-3.4-1.6-3.4l-4.4-7.6V158.2l4.4-7.8c0,0,2.8-6.3,8.6-6.3c5.9,0,15,0,15,0s0-1.9,0-3.5c0-1.6,2.4-4.3,5.5-4.3
		c3.1,0,57.4,0,60.9,0C374.8,136.3,373.1,144.9,373.1,144.9z"/>
	<path id="XMLID_3286_" class="st1" d="M406,156.1c0,0,5.8,1.6,7.7,5.8c1.9,4.2,1.9,11,1.9,11s-6.6,2.8-9.9-4.9
		C402.2,160,406,156.1,406,156.1z"/>
	<path id="XMLID_3285_" class="st1" d="M405.7,269.1c0,0,6.1-1.6,8-5.7c1.9-4.2,1.9-11.2,1.9-11.2s-6.3-2.9-9.7,4.3
		C402.2,264.4,405.7,269.1,405.7,269.1z"/>
	<path id="XMLID_3284_" class="st2" d="M358,266.1c2.7-6.3,6.3-19.3,6.6-51.3h0c0-0.7,0-1.5,0-2.2c0-0.7,0-1.4,0-2.2l0,0
		c-0.3-32-3.8-45-6.6-51.3c-2.9-6.6-6.3-7.4-9.1-6.2c-2.8,1.2-13,6.6-16.6,8.6c-3.6,2-3.8,5.1-4.1,8.7c-0.2,3.5,1.5,8.1,1.6,42.3
		c-0.1,34.2-1.8,38.8-1.6,42.3c0.2,3.6,0.5,6.7,4.1,8.7c3.6,2,13.9,7.4,16.6,8.6C351.7,273.5,355.1,272.7,358,266.1z"/>
	<path id="XMLID_3283_" class="st2" d="M352.4,144.5c0,0-15.7,10.3-27.9,12.6c-12.2,2.3-29.2,1.6-32.3,0.7c-3.1-0.8-7.3-3.4-8.3-6.2
		c-1-2.9-1.4-4.5-1.4-4.5L352.4,144.5z"/>
	<path id="XMLID_3282_" class="st2" d="M352.4,280.6c0,0-15.7-10.3-27.9-12.6c-12.2-2.3-29.2-1.6-32.3-0.7c-3.1,0.8-7.3,3.4-8.3,6.2
		c-1,2.9-1.4,4.5-1.4,4.5L352.4,280.6z"/>
	<path id="XMLID_3281_" class="st0" d="M27.6,157.9V137c0-0.4,0.3-0.8,0.8-0.8h70.1c0.4,0,0.8,0.3,0.8,0.8v20.8
		c0,0.4-0.3,0.8-0.8,0.8H28.4C28,158.6,27.6,158.3,27.6,157.9z"/>
	<path id="XMLID_3280_" class="st0" d="M27.6,288.1v-20.8c0-0.4,0.3-0.8,0.8-0.8h70.1c0.4,0,0.8,0.3,0.8,0.8v20.8
		c0,0.4-0.3,0.8-0.8,0.8H28.4C28,288.8,27.6,288.5,27.6,288.1z"/>
	<path id="XMLID_3279_" class="st0" d="M110.5,157.9V137c0-0.4,0.3-0.8,0.8-0.8h70.1c0.4,0,0.8,0.3,0.8,0.8v20.8
		c0,0.4-0.3,0.8-0.8,0.8h-70.1C110.8,158.6,110.5,158.3,110.5,157.9z"/>
	<path id="XMLID_3278_" class="st0" d="M110.5,288.1v-20.8c0-0.4,0.3-0.8,0.8-0.8h70.1c0.4,0,0.8,0.3,0.8,0.8v20.8
		c0,0.4-0.3,0.8-0.8,0.8h-70.1C110.8,288.8,110.5,288.5,110.5,288.1z"/>
	<path id="XMLID_3277_" class="st0" d="M354.3,141.6l0.6-12.9c0,0-0.2-4.9-4.7-6.5c-4.5-1.5-7.4-2-8.5-1.2c-1.1,0.8-2.8,5.4-2.8,8.9
		c0,3.5,0.8,4.1,1.3,4.6c0.5,0.5,4,3.1,4,3.1L354.3,141.6z"/>
	<path id="XMLID_3276_" class="st0" d="M354.3,283.6l0.6,12.9c0,0-0.2,4.9-4.7,6.5c-4.5,1.5-7.4,2-8.5,1.2c-1.1-0.8-2.8-5.4-2.8-8.9
		c0-3.5,0.8-4.1,1.3-4.6c0.5-0.5,4-3.1,4-3.1L354.3,283.6z"/>
	<rect id="XMLID_3275_" x="5.9" y="142.2" class="st3" width="271.2" height="141.1"/>
	<circle id="XMLID_3274_" class="st4" cx="11.5" cy="147.5" r="3.9"/>
	<circle id="XMLID_3273_" class="st4" cx="11.5" cy="277.6" r="3.9"/>
	<path id="XMLID_3272_" class="st5" d="M259.4,270.7V154.8c0-1.9-1.6-3.5-3.5-3.5l0,0c-1.9,0-3.5,1.6-3.5,3.5v115.8
		c0,1.9,1.6,3.5,3.5,3.5l0,0C257.8,274.2,259.4,272.6,259.4,270.7z"/>
	<path id="XMLID_3271_" class="st5" d="M234.7,270.7V154.8c0-1.9-1.6-3.5-3.5-3.5l0,0c-1.9,0-3.5,1.6-3.5,3.5v115.8
		c0,1.9,1.6,3.5,3.5,3.5l0,0C233.1,274.2,234.7,272.6,234.7,270.7z"/>
	<path id="XMLID_3270_" class="st5" d="M210,270.7V154.8c0-1.9-1.6-3.5-3.5-3.5l0,0c-1.9,0-3.5,1.6-3.5,3.5v115.8
		c0,1.9,1.6,3.5,3.5,3.5l0,0C208.4,274.2,210,272.6,210,270.7z"/>
	<path id="XMLID_3269_" class="st5" d="M185.3,270.7V154.8c0-1.9-1.6-3.5-3.5-3.5l0,0c-1.9,0-3.5,1.6-3.5,3.5v115.8
		c0,1.9,1.6,3.5,3.5,3.5l0,0C183.7,274.2,185.3,272.6,185.3,270.7z"/>
	<path id="XMLID_3268_" class="st5" d="M160.6,270.7V154.8c0-1.9-1.6-3.5-3.5-3.5l0,0c-1.9,0-3.5,1.6-3.5,3.5v115.8
		c0,1.9,1.6,3.5,3.5,3.5l0,0C159,274.2,160.6,272.6,160.6,270.7z"/>
	<path id="XMLID_3267_" class="st5" d="M135.9,270.7V154.8c0-1.9-1.6-3.5-3.5-3.5l0,0c-1.9,0-3.5,1.6-3.5,3.5v115.8
		c0,1.9,1.6,3.5,3.5,3.5l0,0C134.3,274.2,135.9,272.6,135.9,270.7z"/>
	<path id="XMLID_3266_" class="st5" d="M111.2,270.7V154.8c0-1.9-1.6-3.5-3.5-3.5l0,0c-1.9,0-3.5,1.6-3.5,3.5v115.8
		c0,1.9,1.6,3.5,3.5,3.5l0,0C109.6,274.2,111.2,272.6,111.2,270.7z"/>
	<path id="XMLID_3265_" class="st5" d="M86.5,270.7V154.8c0-1.9-1.6-3.5-3.5-3.5l0,0c-1.9,0-3.5,1.6-3.5,3.5v115.8
		c0,1.9,1.6,3.5,3.5,3.5l0,0C84.9,274.2,86.5,272.6,86.5,270.7z"/>
	<path id="XMLID_3264_" class="st5" d="M61.8,270.7V154.8c0-1.9-1.6-3.5-3.5-3.5l0,0c-1.9,0-3.5,1.6-3.5,3.5v115.8
		c0,1.9,1.6,3.5,3.5,3.5l0,0C60.2,274.2,61.8,272.6,61.8,270.7z"/>
	<path id="XMLID_3263_" class="st5" d="M37.1,270.7V154.8c0-1.9-1.6-3.5-3.5-3.5l0,0c-1.9,0-3.5,1.6-3.5,3.5v115.8
		c0,1.9,1.6,3.5,3.5,3.5l0,0C35.5,274.2,37.1,272.6,37.1,270.7z"/>
</g>
</svg>
