<?xml version="1.0" encoding="utf-8"?>
<!-- Generator: Adobe Illustrator 19.0.0, SVG Export Plug-In . SVG Version: 6.00 Build 0)  -->
<svg version="1.1" id="Capa_1" xmlns="http://www.w3.org/2000/svg" xmlns:xlink="http://www.w3.org/1999/xlink" x="0px" y="0px"
	 viewBox="0 0 425.2 425.2" style="enable-background:new 0 0 425.2 425.2;" xml:space="preserve">
<style type="text/css">
	.st0{fill:#1A90AF;}
	.st1{fill:#3C3C3B;}
	.st2{fill:#878787;}
	.st3{fill:#8C1912;}
	.st4{fill:#177287;}
</style>
<g id="XMLID_3173_">
	<path id="XMLID_3241_" class="st0" d="M362,313.5L383,309c7.4-2.1,15.2-3,23.4-23.6c8.2-20.6,14.5-64.3,14.5-73.2
		c0-0.2,0-0.3,0-0.5c0-0.2,0-0.3,0-0.5c0-8.9-6.4-52.5-14.5-73.2c-8.2-20.6-15.9-21.5-23.4-23.6L362,110c0,0-306.7-0.5-323-0.5
		c-16.3,0-34.7,4.2-34.7,35.9c0,15.3,0,32,0,49.5c0,18.8,0,33.7,0,33.7c0,17.5,0,34.2,0,49.5C4.2,309.8,22.6,314,39,314
		C55.3,314,362,313.5,362,313.5z"/>
	<path id="XMLID_3240_" class="st1" d="M369.7,121c0,0-58.2,13.7-63.3,14.3c-5.1,0.6-14.2,0.8-14.9,0c-0.6-0.8,0-7.2,0-11
		c0-3.7,1.3-4.3,7.3-4.3S379.4,118.8,369.7,121z"/>
	<path id="XMLID_3239_" class="st1" d="M31.1,132.7l-7.6-9.8c0-1.2,1.5-2.2,3.4-2.2h250.5c1.8,0,3.4,1,3.4,2.2v9.8
		c0,1.2-1.5,2.2-3.4,2.2H34.5C32.6,134.9,32.2,133.9,31.1,132.7z"/>
	<path id="XMLID_3238_" class="st1" d="M368.2,306.4c0,0-58.2-13.4-63.3-14c-5.1-0.6-14.2-0.8-14.9,0s0,7.1,0,10.7
		c0,3.6,1.3,4.3,7.3,4.3S378,308.6,368.2,306.4z"/>
	<path id="XMLID_3237_" class="st1" d="M29.7,294.9l-7.6,9.5c0,1.2,1.5,2.1,3.4,2.1H276c1.8,0,3.4-1,3.4-2.1v-9.5
		c0-1.2-1.5-2.1-3.4-2.1H33.1C31.2,292.8,30.7,293.7,29.7,294.9z"/>
	<path id="XMLID_3236_" class="st1" d="M324.8,154.2l42.1-24.2h6c0,0,10.8,8.6,10.8,79.2c0,70.6-8.9,87.7-8.9,87.7h-5.7l-44.3-27.5
		c0,0,2.2-22,2.2-60.9C327,169.6,324.8,154.2,324.8,154.2z"/>
	<path id="XMLID_3235_" class="st2" d="M402.6,158.8c0,0-13-1.6-17.4-17.3c-4.4-15.7-3.5-18.6-3.5-18.6s11.4,1,15.2,13.1
		C400.7,148,402.6,158.8,402.6,158.8z"/>
	<path id="XMLID_3234_" class="st2" d="M402.6,266.4c0,0-13,1.6-17.4,17.3c-4.4,15.7-3.5,18.6-3.5,18.6s11.4-1,15.2-13.1
		C400.7,277.2,402.6,266.4,402.6,266.4z"/>
	<path id="XMLID_3233_" class="st3" d="M16.7,118.4c0,0-1,0.3-3.3,3.3c-1.8,2.3-2.6,4.4-2.6,4.4l11.5,13.6l4.7-5.5L16.7,118.4z"/>
	<path id="XMLID_3232_" class="st3" d="M17.6,305.8c0,0-1-0.3-3.3-3.3c-1.8-2.3-2.6-4.4-2.6-4.4l11.5-13.6l4.7,5.5L17.6,305.8z"/>
	<path id="XMLID_3231_" class="st0" d="M376.7,123.7l2.5-1.6l-0.4-18.4c0,0-2.8-11.4-10.4-16.2c-8.1-5.1-10.8-3.6-10.8-3.6l8,29.4
		L376.7,123.7z"/>
	<path id="XMLID_3230_" class="st0" d="M376.7,301.5l2.5,1.6l-0.4,18.4c0,0-2.8,11.4-10.4,16.2c-8.1,5.1-10.8,3.6-10.8,3.6l8-29.4
		L376.7,301.5z"/>
	<path id="XMLID_3229_" class="st4" d="M213,273.9v-117c0-0.6,0.5-1.1,1.1-1.1h76.2c0.6,0,1.1,0.5,1.1,1.1v117
		c0,0.6-0.5,1.1-1.1,1.1h-76.2C213.5,274.9,213,274.4,213,273.9z"/>
</g>
</svg>
